<svg width="14" height="15" viewBox="0 0 14 15" fill="none" xmlns="http://www.w3.org/2000/svg">
<path d="M7.97025 9.45518L7.96678 9.45825C7.96793 9.4571 7.96909 9.45633 7.97025 9.45518ZM6.45481 9.45671C6.45597 9.45786 6.45713 9.45863 6.45829 9.45978L6.45481 9.45671ZM1.95909 14.1814C1.56546 14.1814 1.17452 14.0182 0.896004 13.6991C0.387252 13.1158 0.450991 12.233 1.03816 11.728L6.12723 7.34473C6.74453 6.80983 7.67976 6.81098 8.29822 7.34627L13.3525 11.7C13.9397 12.2054 14.003 13.0882 13.4947 13.6714C12.9855 14.2544 12.0982 14.3185 11.5114 13.8124L7.21118 10.1087L2.87925 13.84C2.61348 14.0693 2.28551 14.1814 1.95909 14.1814Z" fill="#6C2785"/>
<path d="M7.97025 2.51082L7.96678 2.51389C7.96793 2.51274 7.96909 2.51197 7.97025 2.51082ZM6.45481 2.51236C6.45597 2.51351 6.45713 2.51428 6.45829 2.51543L6.45481 2.51236ZM1.95909 7.23743C1.56546 7.23743 1.17452 7.07423 0.896004 6.75513C0.387252 6.17184 0.450991 5.28903 1.03816 4.78369L6.12723 0.40038C6.74453 -0.134526 7.67976 -0.133375 8.29822 0.401916L13.3525 4.75566C13.9397 5.261 14.003 6.14381 13.4947 6.7271C12.9855 7.31 12.0982 7.37375 11.5114 6.86802L7.21195 3.16438L2.87925 6.89605C2.61348 7.1253 2.28551 7.23743 1.95909 7.23743Z" fill="#6C2785"/>
</svg>
