<svg width="146" height="34" viewBox="0 0 146 34" fill="none" xmlns="http://www.w3.org/2000/svg">
<g clip-path="url(#clip0_1766_617)">
<mask id="mask0_1766_617" style="mask-type:luminance" maskUnits="userSpaceOnUse" x="0" y="0" width="146" height="34">
<path d="M0 3.13045e-05H146V33.2214H0V3.13045e-05Z" fill="white"/>
</mask>
<g mask="url(#mask0_1766_617)">
<path d="M1.42299 23.6914H6.99803C8.1179 23.6914 8.95307 23.4594 9.50548 22.9959C10.0575 22.5321 10.3337 21.8056 10.3337 20.8164C10.3337 19.8268 10.0575 19.1003 9.50548 18.6364C8.95307 18.173 8.1179 17.9406 6.99803 17.9406H1.42299V23.6914ZM0.723411 32.8274C0.240927 32.8274 -0.00012207 32.5724 -0.00012207 32.0621V17.3382C-0.00012207 16.8278 0.256379 16.5728 0.770153 16.5728H7.1143C8.65446 16.5728 9.82417 16.9288 10.6253 17.6396C11.4261 18.3504 11.8263 19.4098 11.8263 20.8164C11.8263 22.223 11.4261 23.282 10.6253 23.9928C9.82417 24.704 8.65446 25.0595 7.1143 25.0595H1.42299V32.0621C1.42299 32.5724 1.18967 32.8274 0.723411 32.8274Z" fill="#6C2785"/>
<path d="M16.4914 32.8273C16.0406 32.8273 15.8154 32.6034 15.8154 32.1549V17.2685C15.8154 16.8204 16.0406 16.5958 16.4914 16.5958H16.5618C17.0126 16.5958 17.2378 16.8204 17.2378 17.2685V23.6682H26.3822V17.2685C26.3822 16.8204 26.6074 16.5958 27.0586 16.5958H27.1521C27.6025 16.5958 27.8281 16.8204 27.8281 17.2685V32.1549C27.8281 32.6034 27.6025 32.8273 27.1521 32.8273H27.0586C26.6074 32.8273 26.3822 32.6034 26.3822 32.1549V25.013H17.2378V32.1549C17.2378 32.6034 17.0126 32.8273 16.5618 32.8273H16.4914Z" fill="#6C2785"/>
<path d="M35.4093 26.5665H41.7075L38.582 18.6135L35.4093 26.5665ZM32.2135 32.8271C31.9647 32.8271 31.797 32.7576 31.7121 32.6183C31.6263 32.4796 31.6302 32.2861 31.7236 32.0388L37.7418 17.1294C37.8507 16.7738 38.1068 16.596 38.5117 16.596H38.6283C39.0324 16.596 39.2893 16.7738 39.3982 17.1294L45.4399 32.0388C45.6106 32.5645 45.4476 32.8271 44.9501 32.8271H44.7167C44.3432 32.8271 44.0867 32.6497 43.9468 32.2938L42.2205 27.9347H34.9195L33.1703 32.2938C33.0456 32.6497 32.7891 32.8271 32.4001 32.8271H32.2135Z" fill="#6C2785"/>
<path d="M50.7348 23.6914H56.3098C57.4297 23.6914 58.2648 23.4594 58.8172 22.9959C59.3693 22.5321 59.6455 21.8056 59.6455 20.8164C59.6455 19.8268 59.3693 19.1003 58.8172 18.6364C58.2648 18.173 57.4297 17.9406 56.3098 17.9406H50.7348V23.6914ZM50.0352 32.8274C49.5527 32.8274 49.3116 32.5724 49.3116 32.0621V17.3382C49.3116 16.8278 49.5681 16.5728 50.0819 16.5728H56.4261C57.9662 16.5728 59.1359 16.9288 59.9371 17.6396C60.7379 18.3504 61.1381 19.4098 61.1381 20.8164C61.1381 23.4594 59.7389 24.8664 56.9395 25.0361L60.6483 31.9231C60.7727 32.1861 60.804 32.4023 60.7418 32.5724C60.6792 32.7425 60.5239 32.8274 60.2751 32.8274H60.065C59.6296 32.8274 59.3264 32.6415 59.1556 32.2706L55.3537 25.0595H50.7348V32.0621C50.7348 32.5724 50.5014 32.8274 50.0352 32.8274Z" fill="#6C2785"/>
<path d="M66.13 32.8273C65.6479 32.8273 65.4072 32.5723 65.4072 32.062V17.3615C65.4072 16.8511 65.6869 16.5958 66.247 16.5958C66.6511 16.5958 66.9543 16.7663 67.1564 17.1061L72.4513 24.9665L77.7 17.1061C77.8243 16.9053 77.9642 16.7697 78.1195 16.7006C78.2751 16.6307 78.4698 16.5958 78.7028 16.5958C79.2166 16.5958 79.4727 16.8511 79.4727 17.3615V32.062C79.4727 32.5723 79.2316 32.8273 78.7495 32.8273C78.252 32.8273 78.0032 32.5723 78.0032 32.062V19.0771L73.1517 26.3811C72.9489 26.7214 72.716 26.8915 72.4513 26.8915C72.1717 26.8915 71.9302 26.7214 71.7286 26.3811L66.8531 19.0771V32.062C66.8531 32.5723 66.6121 32.8273 66.13 32.8273Z" fill="#6C2785"/>
<path d="M87.0541 26.5665H93.3519L90.2263 18.6135L87.0541 26.5665ZM83.8582 32.8271C83.6095 32.8271 83.4418 32.7576 83.3568 32.6183C83.2711 32.4796 83.2749 32.2861 83.3684 32.0388L89.3865 17.1294C89.4955 16.7738 89.7516 16.596 90.1564 16.596H90.2731C90.6772 16.596 90.9337 16.7738 91.043 17.1294L97.0843 32.0388C97.255 32.5645 97.092 32.8271 96.5944 32.8271H96.3615C95.988 32.8271 95.7315 32.6497 95.5916 32.2938L93.8653 27.9347H86.5643L84.8143 32.2938C84.6899 32.6497 84.4334 32.8271 84.0448 32.8271H83.8582Z" fill="#6C2785"/>
<path d="M105.925 32.8273C104.899 32.8273 104.386 32.3169 104.386 31.297V19.3786H101.12C100.093 19.3786 99.5803 18.9147 99.5803 17.9874C99.5803 17.0596 100.093 16.5958 101.12 16.5958H110.684C111.71 16.5958 112.223 17.0596 112.223 17.9874C112.223 18.9147 111.71 19.3786 110.684 19.3786H107.441V31.297C107.441 32.3169 106.936 32.8273 105.925 32.8273Z" fill="#6C2785"/>
<path d="M122.207 30.2999C123.14 30.2999 123.944 30.0645 124.621 29.5926C125.298 29.1214 125.818 28.4678 126.184 27.6334C126.549 26.7986 126.732 25.8248 126.732 24.7116C126.732 23.5834 126.549 22.6015 126.184 21.7667C125.818 20.9319 125.298 20.2791 124.621 19.8072C123.944 19.336 123.14 19.1002 122.207 19.1002C121.289 19.1002 120.492 19.336 119.816 19.8072C119.14 20.2791 118.615 20.9319 118.241 21.7667C117.868 22.6015 117.681 23.5834 117.681 24.7116C117.681 25.8248 117.868 26.7986 118.241 27.6334C118.615 28.4678 119.14 29.1214 119.816 29.5926C120.492 30.0645 121.289 30.2999 122.207 30.2999ZM122.207 33.2213C120.73 33.2213 119.408 32.8738 118.241 32.178C117.075 31.4822 116.161 30.4969 115.5 29.2216C114.839 27.9464 114.509 26.443 114.509 24.7116C114.509 22.9652 114.839 21.4538 115.5 20.1785C116.161 18.9033 117.075 17.9141 118.241 17.2102C119.408 16.5071 120.73 16.1554 122.207 16.1554C123.684 16.1554 125.002 16.5071 126.161 17.2102C127.319 17.9141 128.229 18.9033 128.89 20.1785C129.551 21.4538 129.881 22.9652 129.881 24.7116C129.881 26.443 129.551 27.9464 128.89 29.2216C128.229 30.4969 127.319 31.4822 126.161 32.178C125.002 32.8738 123.684 33.2213 122.207 33.2213Z" fill="#6C2785"/>
<path d="M136.436 23.3901H140.541C141.242 23.3901 141.793 23.2357 142.198 22.9262C142.602 22.6175 142.804 22.0995 142.804 21.3726C142.804 20.6618 142.602 20.1514 142.198 19.8423C141.793 19.5332 141.242 19.3785 140.541 19.3785H136.436V23.3901ZM134.92 32.8271C133.909 32.8271 133.403 32.3172 133.403 31.2969V18.1266C133.403 17.106 133.917 16.596 134.943 16.596H140.962C141.988 16.596 142.878 16.7508 143.632 17.0599C144.387 17.3694 144.97 17.8713 145.382 18.5671C145.793 19.2625 146 20.1979 146 21.3726C146 22.5476 145.793 23.4868 145.382 24.1899C144.97 24.8934 144.387 25.4037 143.632 25.7205C142.878 26.0373 141.988 26.1955 140.962 26.1955H136.436V31.2969C136.436 32.3172 135.931 32.8271 134.92 32.8271Z" fill="#6C2785"/>
<path d="M122.97 9.45518L122.967 9.45825C122.968 9.4571 122.969 9.45633 122.97 9.45518ZM121.455 9.45671C121.456 9.45786 121.457 9.45863 121.458 9.45978L121.455 9.45671ZM116.959 14.1814C116.565 14.1814 116.175 14.0182 115.896 13.6991C115.387 13.1158 115.451 12.233 116.038 11.728L121.127 7.34473C121.745 6.80983 122.68 6.81098 123.298 7.34627L128.353 11.7C128.94 12.2054 129.003 13.0882 128.495 13.6714C127.986 14.2544 127.098 14.3185 126.511 13.8124L122.211 10.1087L117.879 13.84C117.613 14.0693 117.286 14.1814 116.959 14.1814Z" fill="#6C2785"/>
<path d="M122.97 2.51082L122.967 2.51389C122.968 2.51274 122.969 2.51197 122.97 2.51082ZM121.455 2.51236C121.456 2.51351 121.457 2.51428 121.458 2.51543L121.455 2.51236ZM116.959 7.23743C116.565 7.23743 116.175 7.07423 115.896 6.75513C115.387 6.17184 115.451 5.28903 116.038 4.78369L121.127 0.40038C121.745 -0.134526 122.68 -0.133375 123.298 0.401916L128.353 4.75566C128.94 5.261 129.003 6.14381 128.495 6.7271C127.986 7.31 127.098 7.37375 126.511 6.86802L122.212 3.16438L117.879 6.89605C117.613 7.1253 117.286 7.23743 116.959 7.23743Z" fill="#6C2785"/>
</g>
</g>
<defs>
<clipPath id="clip0_1766_617">
<rect width="146" height="33.6032" fill="white"/>
</clipPath>
</defs>
</svg>
