<svg width="800" height="800" viewBox="0 0 800 800" fill="none" xmlns="http://www.w3.org/2000/svg">
<g clip-path="url(#clip0_1518_2272)">
<path d="M499.999 0H299.982C246.963 0 203.996 58.9726 203.996 111.992V703.997C203.996 756.999 246.963 800 299.982 800H499.999C553.001 800 596.002 757.016 596.002 703.997V111.992C595.968 58.9726 553.001 0 499.999 0ZM579.179 241.334V439.752L532.759 445.722V363.973L579.179 241.334ZM554.821 183.245C537.539 249.583 517.077 327.998 517.077 327.998H282.887L245.092 183.245C245.092 183.245 396.206 131.91 554.821 183.245ZM267.748 369.332V445.739L221.312 439.803V246.675L267.748 369.332ZM221.312 645.314V469.11L267.748 474.945V614.356L221.312 645.314ZM247.796 695.39L285.524 638.646H519.764L557.509 695.39H247.796ZM532.759 609.032V475.132L579.179 469.093V640.007L532.759 609.032Z" fill="black"/>
<path d="M554.821 183.245C537.539 249.583 517.077 327.998 517.077 327.998H282.887L245.092 183.245C245.092 183.245 396.206 131.91 554.821 183.245Z" fill="#FCD071"/>
<path d="M579.179 241.334V439.752L532.759 445.722V363.973L579.179 241.334Z" fill="#FCD071"/>
<path d="M532.759 609.032V475.132L579.179 469.093V640.007L532.759 609.032Z" fill="#FCD071"/>
<path d="M247.796 695.39L285.524 638.646H519.764L557.509 695.39H247.796Z" fill="#FCD071"/>
<path d="M221.312 645.314V469.11L267.748 474.945V614.356L221.312 645.314Z" fill="#FCD071"/>
<path d="M267.748 369.332V445.739L221.312 439.803V246.675L267.748 369.332Z" fill="#FCD071"/>
<path d="M580.679 241.334L577.776 240.803L531.357 363.443L531.259 363.699V363.973V445.722V447.427L532.951 447.21L579.37 441.239L580.679 441.071V439.752V241.334ZM556.629 182.254L555.283 181.818C475.71 156.065 398.049 156.072 340.309 162.504C311.434 165.72 287.526 170.545 270.83 174.568C262.482 176.58 255.936 178.391 251.472 179.701C249.24 180.355 247.529 180.885 246.374 181.252C245.796 181.435 245.357 181.578 245.062 181.675C244.914 181.723 244.802 181.761 244.726 181.786L244.64 181.815L244.618 181.822L244.612 181.824C244.61 181.825 244.609 181.825 245.092 183.245L244.609 181.825L243.288 182.274L243.64 183.624L281.436 328.377L281.728 329.498H282.887H517.077H518.235L518.528 328.377L518.213 328.294C518.528 328.376 518.528 328.376 518.528 328.376L518.529 328.373L518.532 328.362L518.543 328.32L518.587 328.15L518.762 327.48L519.441 324.878L521.995 315.088C524.184 306.7 527.282 294.825 530.92 280.877C538.195 252.981 547.632 216.793 556.273 183.624L556.629 182.254ZM284.046 326.498L246.9 184.233C247.019 184.195 247.146 184.154 247.281 184.111C248.416 183.751 250.107 183.228 252.317 182.579C256.737 181.282 263.236 179.484 271.533 177.485C288.128 173.486 311.911 168.686 340.642 165.485C397.786 159.12 474.44 159.091 553.012 184.239C544.469 217.031 535.192 252.608 528.017 280.12C524.379 294.068 521.281 305.943 519.092 314.33L516.538 324.12L515.918 326.498H284.046ZM269.248 369.332V369.057L269.151 368.8L222.715 246.143L219.812 246.675V439.803V441.123L221.122 441.291L267.558 447.227L269.248 447.443V445.739V369.332ZM219.812 645.314V648.117L222.144 646.562L268.58 615.604L269.248 615.159V614.356V474.945V473.621L267.935 473.456L221.499 467.622L219.812 467.41V469.11V645.314ZM246.547 694.56L244.997 696.89H247.796H557.509H560.308L558.758 694.56L521.013 637.815L520.568 637.146H519.764H285.524H284.72L284.274 637.816L246.547 694.56ZM531.259 609.032V609.835L531.927 610.28L578.346 641.255L580.679 642.811V640.007V469.093V467.386L578.985 467.606L532.566 473.644L531.259 473.814V475.132V609.032ZM534.259 364.248L577.679 249.534V438.432L534.259 444.017V364.248ZM222.812 254.873L266.248 369.606V444.035L222.812 438.482V254.873ZM222.812 642.511V470.811L266.248 476.268V613.553L222.812 642.511ZM554.709 693.89H250.595L286.328 640.146H518.96L554.709 693.89ZM577.679 637.203L534.259 608.23V476.449L577.679 470.801V637.203ZM299.982 1.5H499.999C525.921 1.5 549.522 15.9272 566.699 37.0598C583.876 58.1913 594.485 85.8619 594.502 111.993V703.997C594.502 756.188 552.173 798.5 499.999 798.5H299.982C247.792 798.5 205.496 756.172 205.496 703.997V111.992C205.496 85.8614 216.096 58.191 233.271 37.0598C250.446 15.9274 274.051 1.5 299.982 1.5Z" stroke="white" stroke-width="3"/>
</g>
<defs>
<clipPath id="clip0_1518_2272">
<rect width="800" height="800" fill="white"/>
</clipPath>
</defs>
</svg>
