<?xml version="1.0" encoding="UTF-8"?>
<svg version="1.1" xmlns="http://www.w3.org/2000/svg" width="512" height="512">
<path d="M0 0 C1.58167969 -0.05607422 1.58167969 -0.05607422 3.1953125 -0.11328125 C12.70260135 0.98681905 20.86011902 6.38087152 28.9375 11.1875 C29.96166016 11.78691406 30.98582031 12.38632812 32.04101562 13.00390625 C45.06169671 20.67487619 54.20950414 26.33380277 58.875 41.3125 C64.03828305 67.53172459 52.03642301 93.85821257 43.875 118.3125 C44.59147705 118.58167236 45.3079541 118.85084473 46.04614258 119.12817383 C48.89780793 120.32204874 51.4658623 121.70705543 54.13671875 123.26171875 C55.15975098 123.85476807 56.1827832 124.44781738 57.23681641 125.05883789 C58.33429199 125.69942139 59.43176758 126.34000488 60.5625 127 C61.72294246 127.67409474 62.88359074 128.34783525 64.04443359 129.02124023 C66.45634125 130.42070931 68.86735586 131.82169971 71.27783203 133.22363281 C75.77054389 135.834779 80.27412321 138.42698612 84.77758789 141.01953125 C94.57194595 146.65913435 104.35473538 152.31876097 114.125 158 C115.11902832 158.5762915 116.11305664 159.15258301 117.13720703 159.74633789 C118.95648287 160.80613626 120.76958364 161.87663955 122.57495117 162.95996094 C124.38513631 164.02443665 126.24928304 164.99716682 128.12890625 165.93359375 C132.7285401 169.91819833 134.90685366 175.28684176 137.5625 180.6875 C138.1766506 181.90761144 138.792229 183.12700516 139.40917969 184.34570312 C141.24974013 187.99219513 143.06281863 191.65182302 144.875 195.3125 C145.87529695 197.31560642 146.87652321 199.31824918 147.87890625 201.3203125 C149.24508105 204.05098727 150.60995783 206.78224355 151.96923828 209.51635742 C155.28203556 216.17189057 158.66562304 222.78678918 162.19433594 229.33081055 C164.30081592 233.24561369 166.28446118 237.16304691 168.08984375 241.2265625 C173.69075952 253.46551071 180.66105642 260.25560539 191.7109375 267.81494141 C194.79519259 269.9492849 197.7370697 272.24876791 200.6875 274.5625 C202.74979799 276.14609645 204.81229541 277.7294332 206.875 279.3125 C209.04210847 280.97859253 211.20854953 282.64555199 213.375 284.3125 C214.45832124 285.14584905 215.54165456 285.97918241 216.625 286.8125 C218.79166667 288.47916667 220.95833333 290.14583333 223.125 291.8125 C223.6622168 292.2257251 224.19943359 292.6389502 224.75292969 293.06469727 C225.82657014 293.89061183 226.90013891 294.71661958 227.97363281 295.54272461 C230.82965919 297.74036998 233.68723565 299.93596364 236.546875 302.12890625 C237.14564453 302.58845703 237.74441406 303.04800781 238.36132812 303.52148438 C239.51582281 304.40749193 240.67075402 305.29293104 241.82617188 306.17773438 C245.7625378 309.2000378 245.7625378 309.2000378 246.875 310.3125 C246.99809805 313.09897496 247.06110749 315.86451624 247.0859375 318.65234375 C247.11400132 320.37175439 247.14266575 322.09115531 247.171875 323.81054688 C247.21320426 326.53409607 247.25007205 329.25746293 247.27636719 331.98120117 C247.30388301 334.60113442 247.34974983 337.22023013 247.3984375 339.83984375 C247.4033168 341.06645973 247.4033168 341.06645973 247.40829468 342.31785583 C247.42925714 344.85314168 247.42925714 344.85314168 247.875 348.3125 C248.865 348.9725 249.855 349.6325 250.875 350.3125 C251.21557617 353.01806641 251.21557617 353.01806641 251.16796875 356.4140625 C251.15830078 357.62578125 251.14863281 358.8375 251.13867188 360.0859375 C251.11353516 361.35695313 251.08839844 362.62796875 251.0625 363.9375 C251.04896484 365.21625 251.03542969 366.495 251.02148438 367.8125 C250.98603196 370.97958282 250.93661441 374.14583541 250.875 377.3125 C250.21306641 377.6935791 249.55113281 378.0746582 248.86914062 378.46728516 C236.85398337 385.38654382 224.8455646 392.31627176 212.875 399.3125 C203.4651056 404.81197067 194.03029431 410.266992 184.5859375 415.70703125 C177.3354851 419.88599128 170.10011731 424.08990506 162.875 428.3125 C153.48171507 433.80224304 144.07058173 439.26017368 134.63208008 444.671875 C129.07801976 447.86165883 123.55593287 451.09344618 118.07421875 454.40625 C116.98044922 455.06173828 115.88667969 455.71722656 114.75976562 456.39257812 C112.67435331 457.64484465 110.59582464 458.90866828 108.52539062 460.18554688 C107.59275391 460.74306641 106.66011719 461.30058594 105.69921875 461.875 C104.47851685 462.61943359 104.47851685 462.61943359 103.2331543 463.37890625 C100.27528601 464.54992688 98.87775399 464.27856213 95.875 463.3125 C93.72875977 462.30371094 93.72875977 462.30371094 91.56640625 461.046875 C90.33748657 460.33905884 90.33748657 460.33905884 89.08374023 459.61694336 C88.21048096 459.10397705 87.33722168 458.59101074 86.4375 458.0625 C85.52750244 457.53470947 84.61750488 457.00691895 83.67993164 456.46313477 C80.7402253 454.75422497 77.80731568 453.03405615 74.875 451.3125 C73.86276367 450.72130371 72.85052734 450.13010742 71.80761719 449.52099609 C68.80676381 447.76818798 65.80883532 446.01051903 62.8125 444.25 C61.87929932 443.7024707 60.94609863 443.15494141 59.98461914 442.59082031 C59.11184326 442.07487305 58.23906738 441.55892578 57.33984375 441.02734375 C56.572771 440.57480225 55.80569824 440.12226074 55.01538086 439.65600586 C52.8524299 438.29833287 50.81022916 436.98218949 48.875 435.3125 C48.625 432.625 48.625 432.625 48.875 430.3125 C45.97481402 431.88795413 43.08069707 433.47425303 40.1875 435.0625 C39.37087891 435.5059375 38.55425781 435.949375 37.71289062 436.40625 C33.43653629 438.76084186 29.65422966 441.19936833 25.875 444.3125 C18.83891412 446.65786196 12.41404584 445.96106967 5.75 442.8125 C-9.06227887 434.57496168 -19.17089972 420.37099923 -24.0546875 404.2421875 C-25.22339969 399.8010812 -26.14955783 395.99943711 -25.984375 391.37890625 C-26.35273765 388.35424755 -26.89412543 387.50481673 -29.27246094 385.52368164 C-32.32876005 383.67842386 -35.43511192 382.04083183 -38.625 380.4375 C-40.93956282 379.21107003 -43.25336454 377.98320262 -45.56640625 376.75390625 C-46.69836426 376.16367676 -47.83032227 375.57344727 -48.99658203 374.96533203 C-52.92823923 372.88812591 -56.75283636 370.66602486 -60.5625 368.375 C-68.82948847 363.45977207 -77.15892053 358.65425481 -85.5065918 353.87744141 C-90.50621918 351.0103269 -95.4782922 348.12401266 -100.359375 345.05859375 C-101.1328125 344.5790625 -101.90625 344.09953125 -102.703125 343.60546875 C-104.1046531 342.73077406 -105.49625666 341.83987353 -106.875 340.9296875 C-109.84301434 339.09026685 -111.54948751 338.22578945 -115.0546875 338.75390625 C-119.7581491 341.14154134 -124.21020355 343.87108137 -128.671875 346.6796875 C-134.96209359 350.51740209 -141.29257921 353.29570523 -148.87109375 351.9609375 C-163.36764195 347.79035344 -173.00286585 337.39663433 -180.40234375 324.6640625 C-184.75986406 316.18616584 -188.31587954 307.62846541 -188.1875 298 C-188.17847656 297.11699219 -188.16945313 296.23398437 -188.16015625 295.32421875 C-188.14855469 294.66035156 -188.13695312 293.99648438 -188.125 293.3125 C-188.85493164 293.03543213 -189.58486328 292.75836426 -190.33691406 292.47290039 C-192.94575795 291.38710048 -195.29438996 290.16512684 -197.734375 288.74609375 C-198.57097656 288.26076172 -199.40757812 287.77542969 -200.26953125 287.27539062 C-201.12933594 286.77201172 -201.98914063 286.26863281 -202.875 285.75 C-203.75027344 285.24275391 -204.62554687 284.73550781 -205.52734375 284.21289062 C-211.98276612 280.45473388 -211.98276612 280.45473388 -213.125 279.3125 C-213.28744662 277.30117596 -213.37973367 275.28415736 -213.44482422 273.26733398 C-213.48670868 271.97186142 -213.52859314 270.67638885 -213.57174683 269.34165955 C-213.70956419 264.17139919 -213.80722605 259.00043116 -213.88068962 253.82887173 C-213.93723407 249.90362529 -214.01856852 245.98248696 -214.16064453 242.05932617 C-214.29750596 238.26461391 -214.36958513 234.47361748 -214.39734268 230.67659187 C-214.41874 229.23411022 -214.46263814 227.79177029 -214.530056 226.3507061 C-214.73630373 221.72746759 -214.66716565 217.6974101 -213.125 213.3125 C-209.17088067 209.61022681 -205.0501618 207.58235505 -200.125 205.3125 C-198.09934601 204.15370108 -196.08302933 202.97821663 -194.08203125 201.77734375 C-192.03495526 200.59964651 -189.98674178 199.42392462 -187.9375 198.25 C-186.23457218 197.27098887 -184.5316462 196.29197453 -182.8288269 195.31277466 C-181.08104539 194.30802701 -179.33279404 193.30410086 -177.58447266 192.30029297 C-172.09360776 189.14527377 -166.60949865 185.9785685 -161.125 182.8125 C-154.60274118 179.04873284 -148.07986227 175.28605372 -141.5546875 171.52734375 C-130.0881462 164.92043186 -118.63810711 158.28680295 -107.21191406 151.61035156 C-99.4041013 147.05125318 -91.58073426 142.51957033 -83.75 138 C-82.61949219 137.34708984 -81.48898438 136.69417969 -80.32421875 136.02148438 C-78.75994141 135.11946289 -78.75994141 135.11946289 -77.1640625 134.19921875 C-76.23803223 133.66514404 -75.31200195 133.13106934 -74.35791016 132.58081055 C-72.9659887 131.7901882 -71.55679021 131.02839511 -70.125 130.3125 C-70.74375 128.4871875 -70.74375 128.4871875 -71.375 126.625 C-71.64441406 125.79484375 -71.91382813 124.9646875 -72.19140625 124.109375 C-72.82542539 122.20997039 -73.50166984 120.32424796 -74.21484375 118.453125 C-81.65128209 97.59934063 -75.78891271 74.88469137 -67.125 55.3125 C-62.36292629 45.29542073 -56.50462476 36.60973134 -49.125 28.3125 C-48.44050781 27.48492187 -47.75601563 26.65734375 -47.05078125 25.8046875 C-36.67078983 13.56358857 -25.44353688 5.92566858 -10.125 1.3125 C-9.43921875 1.10496094 -8.7534375 0.89742187 -8.046875 0.68359375 C-5.352146 0.16327006 -2.74342137 0.06280121 0 0 Z M-5.50390625 59.4453125 C-16.13895267 70.65372664 -24.28624362 85.43324256 -24.375 101.1875 C-24.31305206 102.56362932 -24.23887349 103.93969183 -24.125 105.3125 C-11.85145649 101.73716341 -4.82283742 92.0334828 1.5625 81.5390625 C4.77977406 75.66753734 6.75094715 69.78592148 8.3125 63.3125 C8.4887793 62.58208496 8.66505859 61.85166992 8.84667969 61.09912109 C9.62093117 57.58061462 10.23729986 54.73160552 8.875 51.3125 C3.60539095 51.3125 -1.7632547 56.09162491 -5.50390625 59.4453125 Z " fill="#FED550" transform="translate(237.125,23.6875)"/>
<path d="M0 0 C1.58167969 -0.05607422 1.58167969 -0.05607422 3.1953125 -0.11328125 C12.70260135 0.98681905 20.86011902 6.38087152 28.9375 11.1875 C29.96166016 11.78691406 30.98582031 12.38632812 32.04101562 13.00390625 C45.06169671 20.67487619 54.20950414 26.33380277 58.875 41.3125 C64.03828305 67.53172459 52.03642301 93.85821257 43.875 118.3125 C44.59147705 118.58167236 45.3079541 118.85084473 46.04614258 119.12817383 C48.89780793 120.32204874 51.4658623 121.70705543 54.13671875 123.26171875 C55.15975098 123.85476807 56.1827832 124.44781738 57.23681641 125.05883789 C58.33429199 125.69942139 59.43176758 126.34000488 60.5625 127 C61.72294246 127.67409474 62.88359074 128.34783525 64.04443359 129.02124023 C66.45634125 130.42070931 68.86735586 131.82169971 71.27783203 133.22363281 C75.77060502 135.83481453 80.27422182 138.42709707 84.77783203 141.01953125 C89.0635827 143.48745859 93.34570289 145.96164331 97.62744141 148.43652344 C99.83988344 149.71455716 102.05313283 150.99119405 104.26708984 152.26660156 C107.57624315 154.17370011 110.88219995 156.08623279 114.1875 158 C115.18990723 158.5762915 116.19231445 159.15258301 117.22509766 159.74633789 C121.70220253 162.34541061 125.96396692 164.88513412 129.875 168.3125 C123.29411928 172.88869394 116.46860588 176.92374191 109.4888916 180.85894775 C106.3747756 182.61542567 103.26749394 184.38391004 100.16015625 186.15234375 C99.53708588 186.50675537 98.9140155 186.86116699 98.27206421 187.22631836 C92.68953402 190.40705911 87.14939478 193.65683437 81.625 196.9375 C64.70693249 206.98004012 47.69211477 216.85361637 30.64404297 226.67358398 C19.36198256 233.17590527 8.11563499 239.73885895 -3.125 246.3125 C0.39435635 249.21432022 3.73028561 251.38472587 7.875 253.3125 C7.875 253.9725 7.875 254.6325 7.875 255.3125 C7.21113281 255.62703125 6.54726562 255.9415625 5.86328125 256.265625 C-2.55418878 260.3453331 -7.10694568 263.72599697 -11.6953125 271.97265625 C-13.00003691 274.10798391 -14.27740456 275.6452911 -16.125 277.3125 C-16.4653125 276.59964844 -16.805625 275.88679688 -17.15625 275.15234375 C-22.19255429 265.20028501 -28.00043458 259.83239528 -38.125 255.3125 C-38.125 254.3225 -38.125 253.3325 -38.125 252.3125 C-33.175 249.8375 -33.175 249.8375 -28.125 247.3125 C-29.5790625 246.46429688 -31.033125 245.61609375 -32.53125 244.7421875 C-33.49015137 244.18281494 -34.44905273 243.62344238 -35.43701172 243.04711914 C-37.59484228 241.78841219 -39.75272128 240.52978828 -41.91064453 239.27124023 C-47.32434667 236.11370375 -52.73746876 232.95518832 -58.1484375 229.79296875 C-69.53401631 223.14125384 -80.93820629 216.52325051 -92.36743164 209.94677734 C-97.89973781 206.76078967 -103.4213912 203.55823565 -108.92578125 200.32421875 C-110.01955078 199.68226563 -111.11332031 199.0403125 -112.24023438 198.37890625 C-114.32012133 197.15663915 -116.39834066 195.93152836 -118.47460938 194.703125 C-119.40724609 194.15527344 -120.33988281 193.60742188 -121.30078125 193.04296875 C-122.11458252 192.56239014 -122.92838379 192.08181152 -123.7668457 191.58666992 C-126.16452196 190.29114529 -128.57700056 189.27369424 -131.125 188.3125 C-141.27960745 201.9644647 -150.73599793 216.1274729 -160.125 230.3125 C-171.41841366 227.77985068 -182.36436676 224.15673048 -193.375 220.625 C-195.29546367 220.01202742 -197.21603578 219.39939448 -199.13671875 218.78710938 C-203.80073844 217.29948513 -208.46326708 215.80727402 -213.125 214.3125 C-210.28501025 211.24307061 -207.52637415 209.21331258 -203.86328125 207.2109375 C-202.32232788 206.3602771 -202.32232788 206.3602771 -200.75024414 205.49243164 C-199.65703857 204.8968042 -198.56383301 204.30117676 -197.4375 203.6875 C-195.15027436 202.42456571 -192.86381647 201.16024001 -190.578125 199.89453125 C-189.46501953 199.27916504 -188.35191406 198.66379883 -187.20507812 198.02978516 C-183.33038045 195.86946307 -179.5001712 193.64254111 -175.6875 191.375 C-168.67824397 187.21385048 -161.62697306 183.12920441 -154.5625 179.0625 C-146.0684367 174.17104659 -137.58736816 169.25858651 -129.125 164.3125 C-109.52600114 152.86165446 -89.84583701 141.55204246 -70.125 130.3125 C-72.12159237 124.23701648 -72.12159237 124.23701648 -74.29296875 118.22265625 C-81.70745497 97.51322922 -75.72033519 74.7297715 -67.125 55.3125 C-62.36292629 45.29542073 -56.50462476 36.60973134 -49.125 28.3125 C-48.44050781 27.48492187 -47.75601563 26.65734375 -47.05078125 25.8046875 C-36.67078983 13.56358857 -25.44353688 5.92566858 -10.125 1.3125 C-9.43921875 1.10496094 -8.7534375 0.89742187 -8.046875 0.68359375 C-5.352146 0.16327006 -2.74342137 0.06280121 0 0 Z M-5.50390625 59.4453125 C-16.13895267 70.65372664 -24.28624362 85.43324256 -24.375 101.1875 C-24.31305206 102.56362932 -24.23887349 103.93969183 -24.125 105.3125 C-11.85145649 101.73716341 -4.82283742 92.0334828 1.5625 81.5390625 C4.77977406 75.66753734 6.75094715 69.78592148 8.3125 63.3125 C8.4887793 62.58208496 8.66505859 61.85166992 8.84667969 61.09912109 C9.62093117 57.58061462 10.23729986 54.73160552 8.875 51.3125 C3.60539095 51.3125 -1.7632547 56.09162491 -5.50390625 59.4453125 Z " fill="#FED551" transform="translate(237.125,23.6875)"/>
<path d="M0 0 C3.63260345 1.36472823 6.90961407 2.9980116 10.26171875 4.94921875 C11.28475098 5.54226807 12.3077832 6.13531738 13.36181641 6.74633789 C14.45929199 7.38692139 15.55676758 8.02750488 16.6875 8.6875 C17.84794246 9.36159474 19.00859074 10.03533525 20.16943359 10.70874023 C22.58134125 12.10820931 24.99235586 13.50919971 27.40283203 14.91113281 C31.89434823 17.52158409 36.39675268 20.11306149 40.89892578 22.70507812 C51.37634132 28.73748144 61.83041351 34.80851174 72.26464844 40.9152832 C77.19347743 43.79565525 82.13346681 46.653595 87.09765625 49.47265625 C88.06985107 50.02477783 89.0420459 50.57689941 90.04370117 51.14575195 C91.88719556 52.1902981 93.73233159 53.23195394 95.5793457 54.27026367 C96.80463989 54.96406128 96.80463989 54.96406128 98.0546875 55.671875 C98.77124512 56.0750293 99.48780273 56.47818359 100.22607422 56.89355469 C102 58 102 58 104 60 C102.73461631 60.84158536 101.46246221 61.67299748 100.1875 62.5 C99.12595703 63.19609375 99.12595703 63.19609375 98.04296875 63.90625 C96 65 96 65 93 65 C93.65484569 68.11090383 93.65484569 68.11090383 96.00390625 69.0703125 C96.84824219 69.41835938 97.69257813 69.76640625 98.5625 70.125 C105.64494505 73.49372745 110.84941785 78.83814186 114 86.0625 C114.33 87.031875 114.66 88.00125 115 89 C116.70539734 86.80734628 118.18718609 84.67055249 119.5625 82.25 C120.036875 81.5075 120.51125 80.765 121 80 C121.66 80 122.32 80 123 80 C123.38220703 80.76965088 123.76441406 81.53930176 124.15820312 82.33227539 C125.93656634 85.91013459 127.71731242 89.48679382 129.5 93.0625 C129.82157074 93.70758514 130.14314148 94.35267029 130.47445679 95.01730347 C133.99858932 102.08045225 137.53152789 109.132217 141.3125 116.0625 C144.27324519 121.51583837 146.94111552 127.063907 149.5625 132.6875 C151.03084377 135.79691569 152.51161419 138.90013408 154 142 C154.56203125 143.17433594 155.1240625 144.34867188 155.703125 145.55859375 C159.59421549 152.97244335 164.27990263 157.02385645 171.14404297 161.6953125 C174.82522563 164.28308415 178.33576762 167.09808676 181.875 169.875 C183.43215825 171.09001476 184.98944893 172.30485981 186.546875 173.51953125 C187.67899414 174.40439209 187.67899414 174.40439209 188.83398438 175.30712891 C190.78915788 176.83521424 192.74600522 178.36112784 194.703125 179.88671875 C201.61322752 185.28429284 208.4487253 190.76734391 215.23291016 196.32250977 C215.85343262 196.82967529 216.47395508 197.33684082 217.11328125 197.859375 C217.73098389 198.38587646 218.34868652 198.91237793 218.98510742 199.45483398 C220.9917066 201.08613512 220.9917066 201.08613512 223.4621582 202.28149414 C226.38467451 203.95926159 228.05257723 205.22593474 230 208 C231.49902205 214.14251504 230.84258273 220.68114468 230.5625 226.9375 C230.51731515 228.68804839 230.47625753 230.43870849 230.43945312 232.18945312 C230.34066709 236.46240765 230.18562578 240.72997238 230 245 C225.8194974 243.71840576 222.17026551 242.13961941 218.3671875 239.98828125 C217.31273437 239.39466797 216.25828125 238.80105469 215.171875 238.18945312 C214.08390625 237.57005859 212.9959375 236.95066406 211.875 236.3125 C210.81023437 235.71244141 209.74546875 235.11238281 208.6484375 234.49414062 C207.58625 233.89408203 206.5240625 233.29402344 205.4296875 232.67578125 C203.83785645 231.77786865 203.83785645 231.77786865 202.21386719 230.86181641 C200.02960279 229.59645631 197.86900166 228.2895357 195.73144531 226.94677734 C194.68827148 226.29789551 193.64509766 225.64901367 192.5703125 224.98046875 C191.1783667 224.08751099 191.1783667 224.08751099 189.75830078 223.17651367 C186.56047944 221.52008664 186.56047944 221.52008664 181 223 C181 229.93 181 236.86 181 244 C179.35 244.33 177.7 244.66 176 245 C174.15506481 245.84049647 174.15506481 245.84049647 172.4765625 246.92578125 C171.8475 247.31056641 171.2184375 247.69535156 170.5703125 248.09179688 C169.92835938 248.49462891 169.28640625 248.89746094 168.625 249.3125 C166.71246427 250.49228576 164.79864534 251.66990414 162.88305664 252.84472656 C161.63360425 253.61127767 160.38793069 254.38402452 159.14624023 255.16308594 C153.55783886 258.55238651 149.38165412 259.09303694 143 258 C127.31382915 252.51084187 117.1582729 240.00943068 110.125 225.4375 C107.26710918 218.67711 104.8767531 211.4474898 105.140625 204.06640625 C104.77226235 201.04174755 104.23087457 200.19231673 101.85253906 198.21118164 C98.79623995 196.36592386 95.68988808 194.72833183 92.5 193.125 C90.18543718 191.89857003 87.87163546 190.67070262 85.55859375 189.44140625 C84.42663574 188.85117676 83.29467773 188.26094727 82.12841797 187.65283203 C78.19676077 185.57562591 74.37216364 183.35352486 70.5625 181.0625 C62.29551153 176.14727207 53.96607947 171.34175481 45.6184082 166.56494141 C40.61878082 163.6978269 35.6467078 160.81151266 30.765625 157.74609375 C29.9921875 157.2665625 29.21875 156.78703125 28.421875 156.29296875 C27.0203469 155.41827406 25.62874334 154.52737353 24.25 153.6171875 C21.28198566 151.77776685 19.57551249 150.91328945 16.0703125 151.44140625 C11.3668509 153.82904134 6.91479645 156.55858137 2.453125 159.3671875 C-3.83709359 163.20490209 -10.16757921 165.98320523 -17.74609375 164.6484375 C-32.24264195 160.47785344 -41.87786585 150.08413433 -49.27734375 137.3515625 C-53.63486406 128.87366584 -57.19087954 120.31596541 -57.0625 110.6875 C-57.05347656 109.80449219 -57.04445313 108.92148437 -57.03515625 108.01171875 C-57.02355469 107.34785156 -57.01195313 106.68398438 -57 106 C-57.72993164 105.72293213 -58.45986328 105.44586426 -59.21191406 105.16040039 C-61.82075795 104.07460048 -64.16938996 102.85262684 -66.609375 101.43359375 C-67.44597656 100.94826172 -68.28257813 100.46292969 -69.14453125 99.96289062 C-70.00433594 99.45951172 -70.86414063 98.95613281 -71.75 98.4375 C-72.62527344 97.93025391 -73.50054687 97.42300781 -74.40234375 96.90039062 C-80.85776612 93.14223388 -80.85776612 93.14223388 -82 92 C-82.09409479 89.97505769 -82.11743122 87.9468013 -82.11352539 85.91967773 C-82.11344986 84.61840439 -82.11337433 83.31713104 -82.11329651 81.97642517 C-82.10818909 80.54548098 -82.10297308 79.11453718 -82.09765625 77.68359375 C-82.09579203 76.2277074 -82.09436815 74.77182043 -82.09336853 73.31593323 C-82.08954365 69.47720621 -82.07971364 65.63851681 -82.06866455 61.79980469 C-82.05844978 57.88542184 -82.05387077 53.97103294 -82.04882812 50.05664062 C-82.03809134 42.37107657 -82.02101529 34.68554355 -82 27 C-75.2029285 28.22581506 -68.69453929 29.88255167 -62.125 32.00390625 C-61.23385498 32.28725327 -60.34270996 32.57060028 -59.42456055 32.86253357 C-57.56170157 33.45590372 -55.69964583 34.05180115 -53.83837891 34.65014648 C-50.98123299 35.56853237 -48.12172806 36.47924659 -45.26171875 37.38867188 C-43.44517265 37.96831191 -41.62876137 38.54837464 -39.8125 39.12890625 C-38.52980225 39.53829185 -38.52980225 39.53829185 -37.22119141 39.95594788 C-36.43276855 40.20968674 -35.6443457 40.4634256 -34.83203125 40.72485352 C-34.13827393 40.9475441 -33.4445166 41.17023468 -32.72973633 41.39967346 C-31 42 -31 42 -29 43 C-28.77957031 42.33226562 -28.55914062 41.66453125 -28.33203125 40.9765625 C-26.58184354 37.06558587 -24.19936601 33.83152339 -21.6875 30.375 C-20.60930524 28.87207696 -19.53253764 27.36812928 -18.45703125 25.86328125 C-17.8945166 25.07646973 -17.33200195 24.2896582 -16.75244141 23.47900391 C-13.15766553 18.39383336 -9.67738582 13.22912212 -6.19018555 8.06982422 C-5.67109619 7.30557129 -5.15200684 6.54131836 -4.6171875 5.75390625 C-4.15940918 5.07658447 -3.70163086 4.3992627 -3.22998047 3.70141602 C-2 2 -2 2 0 0 Z " fill="#DCAF40" transform="translate(106,211)"/>
<path d="M0 0 C1.58167969 -0.05607422 1.58167969 -0.05607422 3.1953125 -0.11328125 C12.70260135 0.98681905 20.86011902 6.38087152 28.9375 11.1875 C29.96166016 11.78691406 30.98582031 12.38632812 32.04101562 13.00390625 C45.06169671 20.67487619 54.20950414 26.33380277 58.875 41.3125 C62.99651069 62.24158977 55.8913057 81.74073437 49.375 101.375 C49.14211273 102.07728729 48.90922546 102.77957458 48.66928101 103.50314331 C46.13287397 111.10791518 43.44872835 118.61025891 40.29541016 125.9855957 C38.52067923 130.142395 36.80649036 134.32286224 35.08984375 138.50390625 C27.30341745 157.41007116 19.40254327 176.23441177 10.97363281 194.86425781 C9.56760938 197.99750291 8.21280866 201.14960137 6.875 204.3125 C-9.45916478 198.23185776 -25.95176468 186.57964425 -37.125 173.3125 C-37.93324219 172.36761719 -38.74148437 171.42273438 -39.57421875 170.44921875 C-41.80496094 167.77157065 -43.96415773 165.04662696 -46.125 162.3125 C-46.85074219 161.45398438 -47.57648438 160.59546875 -48.32421875 159.7109375 C-65.70163836 139.14917399 -78.61282709 117.86865387 -77.125 90.3125 C-75.09020704 67.40105176 -64.25771318 45.32686403 -49.125 28.3125 C-48.44050781 27.48492187 -47.75601563 26.65734375 -47.05078125 25.8046875 C-36.67078983 13.56358857 -25.44353688 5.92566858 -10.125 1.3125 C-9.43921875 1.10496094 -8.7534375 0.89742187 -8.046875 0.68359375 C-5.352146 0.16327006 -2.74342137 0.06280121 0 0 Z M-5.50390625 59.4453125 C-16.13895267 70.65372664 -24.28624362 85.43324256 -24.375 101.1875 C-24.31305206 102.56362932 -24.23887349 103.93969183 -24.125 105.3125 C-11.85145649 101.73716341 -4.82283742 92.0334828 1.5625 81.5390625 C4.77977406 75.66753734 6.75094715 69.78592148 8.3125 63.3125 C8.4887793 62.58208496 8.66505859 61.85166992 8.84667969 61.09912109 C9.62093117 57.58061462 10.23729986 54.73160552 8.875 51.3125 C3.60539095 51.3125 -1.7632547 56.09162491 -5.50390625 59.4453125 Z " fill="#B75151" transform="translate(237.125,23.6875)"/>
<path d="M0 0 C0.31114746 0.62753174 0.62229492 1.25506348 0.94287109 1.90161133 C8.74057472 17.61453082 8.74057472 17.61453082 16.8125 33.1875 C17.19559326 33.91372559 17.57868652 34.63995117 17.97338867 35.38818359 C19.944117 39.12173923 21.92029752 42.85225526 23.90917969 46.57617188 C25.66388027 49.86363843 27.40537887 53.15786615 29.14047241 56.45571899 C29.83495905 57.77022155 30.53383549 59.0824148 31.23721313 60.3921814 C32.22543757 62.23358772 33.19818607 64.08242459 34.16796875 65.93359375 C34.73797607 67.00665771 35.3079834 68.07972168 35.89526367 69.18530273 C37 72 37 72 37.0065918 74.17114258 C35.48737262 76.9313829 33.47075818 77.81950553 30.7265625 79.328125 C29.60556152 79.95468994 28.48456055 80.58125488 27.32958984 81.22680664 C26.4257254 81.72037155 26.4257254 81.72037155 25.50360107 82.22390747 C22.94530003 83.62125235 20.40311848 85.04678093 17.8598938 86.47132874 C16.53813133 87.21158249 15.21558953 87.95044631 13.89230347 88.68797302 C7.31454625 92.36035885 0.84161653 96.19764722 -5.625 100.0625 C-15.51784581 105.95577361 -25.45946393 111.75625308 -35.44189453 117.49633789 C-42.64356435 121.63781579 -49.82780693 125.80769857 -57 130 C-59.94662084 131.71962353 -62.89362363 133.43859014 -65.84082031 135.15722656 C-68.07502172 136.46045317 -70.30872213 137.76451589 -72.54199219 139.06933594 C-75.56414181 140.83443263 -78.58905611 142.59471168 -81.61572266 144.35205078 C-83.34580928 145.35802677 -85.07331937 146.36842969 -86.80078125 147.37890625 C-87.84363281 147.98347656 -88.88648438 148.58804688 -89.9609375 149.2109375 C-90.88696777 149.75024902 -91.81299805 150.28956055 -92.76708984 150.84521484 C-95 152 -95 152 -97 152 C-102.30439102 141.85762046 -107.60352331 131.71261949 -112.85546875 121.54296875 C-113.17742218 120.91984802 -113.49937561 120.29672729 -113.83108521 119.65472412 C-115.44835257 116.52380136 -117.06308894 113.3916107 -118.67382812 110.25732422 C-121.3170427 105.12214611 -123.96727215 99.99836654 -126.80078125 94.96484375 C-127.19233398 94.26423828 -127.58388672 93.56363281 -127.98730469 92.84179688 C-128.96847453 91.10403013 -129.96954194 89.37753626 -130.97265625 87.65234375 C-132 85 -132 85 -131.3984375 82.76953125 C-129.03702271 79.78148404 -126.41497312 78.67753066 -123 77 C-122.01 77 -121.02 77 -120 77 C-120.33 76.34 -120.66 75.68 -121 75 C-123.02463255 74.34786708 -123.02463255 74.34786708 -125 74 C-123.79330174 70.37990523 -123.07308923 70.19211698 -119.8203125 68.42578125 C-118.92530029 67.93158691 -118.03028809 67.43739258 -117.1081543 66.92822266 C-116.12371338 66.39503418 -115.13927246 65.8618457 -114.125 65.3125 C-112.00767545 64.14192224 -109.89184893 62.96863172 -107.77734375 61.79296875 C-106.66472168 61.17470215 -105.55209961 60.55643555 -104.40576172 59.91943359 C-98.77773303 56.74756538 -93.23412603 53.43653281 -87.6875 50.125 C-78.76563241 44.81012968 -69.81456078 39.55295568 -60.8125 34.375 C-52.44604621 29.56251051 -44.08752115 24.73748292 -35.75 19.875 C-34.77828857 19.3087793 -33.80657715 18.74255859 -32.80541992 18.15917969 C-27.74929304 15.20769571 -22.70688159 12.23489922 -17.6796875 9.234375 C-16.66293945 8.62867676 -15.64619141 8.02297852 -14.59863281 7.39892578 C-12.65553073 6.23976489 -10.71467017 5.07683601 -8.77636719 3.90966797 C-7.91430664 3.39549316 -7.05224609 2.88131836 -6.1640625 2.3515625 C-5.40561035 1.89604004 -4.6471582 1.44051758 -3.86572266 0.97119141 C-2 0 -2 0 0 0 Z " fill="#434240" transform="translate(365,202)"/>
<path d="M0 0 C2.9177178 7.22239764 5.83516937 14.44490277 8.75244141 21.66748047 C9.74359193 24.12128091 10.73480199 26.57505731 11.72607422 29.02880859 C13.15608356 32.56862066 14.58587433 36.10852095 16.015625 39.6484375 C16.67368134 41.277173 16.67368134 41.277173 17.34503174 42.93881226 C18.17434 44.99232327 19.00060653 47.04706614 19.82336426 49.10321045 C20.60516744 51.02795166 21.4087579 52.94399183 22.23425293 54.85040283 C22.6103772 55.73202087 22.98650146 56.61363892 23.37402344 57.52197266 C23.88083649 58.67737045 23.88083649 58.67737045 24.39788818 59.85610962 C25.10068973 62.3585177 24.97327801 63.6055851 24 66 C21.76049805 67.66894531 21.76049805 67.66894531 18.76171875 69.328125 C17.08650146 70.26881836 17.08650146 70.26881836 15.37744141 71.22851562 C14.1475316 71.90247271 12.91754923 72.57629741 11.6875 73.25 C10.4255053 73.95370934 9.16428481 74.65880875 7.90380859 75.36523438 C5.27102576 76.83937363 2.63495959 78.30738395 -0.00341797 79.77148438 C-5.73420497 82.9584477 -11.42002196 86.22373779 -17.10775757 89.48669434 C-20.96719933 91.69963022 -24.82893976 93.9080094 -28.70605469 96.08984375 C-31.05701938 97.45316629 -33.33469569 98.84426829 -35.61425781 100.31640625 C-36.22270538 100.69631714 -36.83115295 101.07622803 -37.45803833 101.46765137 C-39.15656582 102.53040108 -40.83888631 103.61892763 -42.52001953 104.70898438 C-49.1980509 107.18642438 -56.64670713 103.59833286 -63.18188477 101.38623047 C-63.94397751 101.13234558 -64.70607025 100.87846069 -65.49125671 100.61688232 C-67.97608889 99.78791577 -70.45874134 98.9526199 -72.94140625 98.1171875 C-74.6771905 97.53672502 -76.41310884 96.95666335 -78.14915466 96.37698364 C-82.69271919 94.8586649 -87.2344547 93.33494696 -91.77581787 91.81005859 C-96.42040645 90.25158789 -101.06672209 88.698284 -105.71289062 87.14453125 C-114.81028167 84.10137958 -123.90574692 81.05251538 -133 78 C-133 77.34 -133 76.68 -133 76 C-131.9790625 75.44054687 -130.958125 74.88109375 -129.90625 74.3046875 C-120.00342107 68.85325906 -110.20533905 63.23969809 -100.45117188 57.52685547 C-92.98472604 53.15422134 -85.49857966 48.81727926 -78 44.5 C-68.66920543 39.12564529 -59.35854693 33.71818265 -50.06323242 28.28271484 C-41.39607127 23.21906098 -32.69425671 18.21650442 -23.99023438 13.21655273 C-17.28025726 9.35050881 -10.64768733 5.39682165 -4.125 1.22265625 C-2 0 -2 0 0 0 Z " fill="#EFC348" transform="translate(412,288)"/>
<path d="M0 0 C1 1 1 1 1.11352539 3.59204102 C1.10828857 4.71795654 1.10305176 5.84387207 1.09765625 7.00390625 C1.09443359 8.21884766 1.09121094 9.43378906 1.08789062 10.68554688 C1.07951172 11.96494141 1.07113281 13.24433594 1.0625 14.5625 C1.05798828 15.84576172 1.05347656 17.12902344 1.04882812 18.45117188 C1.03699545 21.63416022 1.02051068 24.81705762 1 28 C0.33806641 28.3810791 -0.32386719 28.7621582 -1.00585938 29.15478516 C-13.02101663 36.07404382 -25.0294354 43.00377176 -37 50 C-46.4098944 55.49947067 -55.84470569 60.954492 -65.2890625 66.39453125 C-72.5395149 70.57349128 -79.77488269 74.77740506 -87 79 C-96.39328493 84.48974304 -105.80441827 89.94767368 -115.24291992 95.359375 C-120.79698024 98.54915883 -126.31906713 101.78094618 -131.80078125 105.09375 C-132.89455078 105.74923828 -133.98832031 106.40472656 -135.11523438 107.08007812 C-137.20064669 108.33234465 -139.27917536 109.59616828 -141.34960938 110.87304688 C-142.28224609 111.43056641 -143.21488281 111.98808594 -144.17578125 112.5625 C-145.39648315 113.30693359 -145.39648315 113.30693359 -146.6418457 114.06640625 C-149.59971399 115.23742688 -150.99724601 114.96606213 -154 114 C-156.14624023 112.99121094 -156.14624023 112.99121094 -158.30859375 111.734375 C-159.12787354 111.26249756 -159.94715332 110.79062012 -160.79125977 110.30444336 C-161.66451904 109.79147705 -162.53777832 109.27851074 -163.4375 108.75 C-164.34749756 108.22220947 -165.25749512 107.69441895 -166.19506836 107.15063477 C-169.1347747 105.44172497 -172.06768432 103.72155615 -175 102 C-176.01223633 101.40880371 -177.02447266 100.81760742 -178.06738281 100.20849609 C-181.06823619 98.45568798 -184.06616468 96.69801903 -187.0625 94.9375 C-187.99570068 94.3899707 -188.92890137 93.84244141 -189.89038086 93.27832031 C-191.19954468 92.50439941 -191.19954468 92.50439941 -192.53515625 91.71484375 C-193.302229 91.26230225 -194.06930176 90.80976074 -194.85961914 90.34350586 C-195.56594482 89.90014893 -196.27227051 89.45679199 -197 89 C-197.74854248 88.5678418 -198.49708496 88.13568359 -199.26831055 87.69042969 C-201 86 -201 86 -201.36230469 83.36450195 C-201.29946289 82.33284912 -201.23662109 81.30119629 -201.171875 80.23828125 C-201.11386719 79.12001953 -201.05585938 78.00175781 -200.99609375 76.84960938 C-200.87427734 75.09874023 -200.87427734 75.09874023 -200.75 73.3125 C-200.68425781 72.13365234 -200.61851562 70.95480469 -200.55078125 69.74023438 C-200.38555833 66.82522994 -200.20124706 63.91270306 -200 61 C-194.79645666 58.7353048 -194.79645666 58.7353048 -191.29370117 59.89941406 C-189.93208862 60.69943848 -189.93208862 60.69943848 -188.54296875 61.515625 C-187.52041992 62.1034375 -186.49787109 62.69125 -185.44433594 63.296875 C-184.36958008 63.94140625 -183.29482422 64.5859375 -182.1875 65.25 C-180.52702637 66.2090625 -180.52702637 66.2090625 -178.83300781 67.1875 C-173.76027219 70.12906893 -168.73885536 73.14664632 -163.75390625 76.234375 C-162.98344971 76.70584961 -162.21299316 77.17732422 -161.41918945 77.66308594 C-160.00666498 78.53365251 -158.60466174 79.42160344 -157.21557617 80.32910156 C-155.1486038 81.66862565 -155.1486038 81.66862565 -152 83 C-148.29230889 81.86785728 -145.01194623 79.98587875 -141.640625 78.09375 C-140.61654541 77.52019775 -139.59246582 76.94664551 -138.53735352 76.35571289 C-137.45252686 75.74332764 -136.3677002 75.13094238 -135.25 74.5 C-134.12327881 73.86634521 -132.99655762 73.23269043 -131.83569336 72.57983398 C-125.04626123 68.75080572 -118.29252686 64.86903332 -111.58911133 60.89160156 C-105.23613353 57.12384767 -98.83880115 53.4349457 -92.4375 49.75 C-83.94343765 44.85854713 -75.46229238 39.94621516 -67 35 C-57.60674617 29.51020459 -48.19558113 24.05232597 -38.75708008 18.640625 C-33.20301976 15.45084117 -27.68093287 12.21905382 -22.19921875 8.90625 C-21.10544922 8.25076172 -20.01167969 7.59527344 -18.88476562 6.91992188 C-16.79935331 5.66765535 -14.72082464 4.40383172 -12.65039062 3.12695312 C-11.71775391 2.56943359 -10.78511719 2.01191406 -9.82421875 1.4375 C-9.01041748 0.94121094 -8.19661621 0.44492187 -7.3581543 -0.06640625 C-4.46602975 -1.21139893 -2.93002188 -0.92636908 0 0 Z " fill="#D6D4D1" transform="translate(487,373)"/>
<path d="M0 0 C1.58167969 -0.05607422 1.58167969 -0.05607422 3.1953125 -0.11328125 C12.59155932 0.97397024 20.56179348 6.24022501 28.5 11.0625 C30.00626953 11.96548828 30.00626953 11.96548828 31.54296875 12.88671875 C33.99097049 14.3555198 36.4347783 15.83082248 38.875 17.3125 C35.43611664 18.45879445 32.99025889 18.27296967 29.375 18.125 C11.95854975 18.05347454 -1.22914379 28.69329161 -13.125 40.3125 C-14.1459375 41.240625 -14.1459375 41.240625 -15.1875 42.1875 C-20.2233872 46.86368097 -23.62722475 52.43326075 -27.125 58.3125 C-24.815 59.6325 -22.505 60.9525 -20.125 62.3125 C-20.125 62.9725 -20.125 63.6325 -20.125 64.3125 C-21.69921875 65.3203125 -21.69921875 65.3203125 -23.8125 66.4375 C-27.96078712 68.88241967 -29.89050324 71.52626662 -32.1171875 75.73828125 C-32.44976562 76.25777344 -32.78234375 76.77726562 -33.125 77.3125 C-33.785 77.3125 -34.445 77.3125 -35.125 77.3125 C-36.115 76.3225 -36.115 76.3225 -37.125 75.3125 C-44.60733252 94.39365867 -51.75879656 115.09450548 -44.125 135.3125 C-32.85929066 160.52955218 -15.02961952 181.49719283 3.875 201.3125 C-6.52841655 201.3125 -22.77636339 188.13743211 -30.06982422 181.16625977 C-32.53200667 178.62715827 -34.84252802 176.01688347 -37.125 173.3125 C-38.33929688 171.89324219 -38.33929688 171.89324219 -39.578125 170.4453125 C-41.80729401 167.76879325 -43.96531769 165.04515925 -46.125 162.3125 C-46.85074219 161.45398438 -47.57648438 160.59546875 -48.32421875 159.7109375 C-65.70163836 139.14917399 -78.61282709 117.86865387 -77.125 90.3125 C-75.09020704 67.40105176 -64.25771318 45.32686403 -49.125 28.3125 C-48.44050781 27.48492187 -47.75601563 26.65734375 -47.05078125 25.8046875 C-36.67078983 13.56358857 -25.44353688 5.92566858 -10.125 1.3125 C-9.43921875 1.10496094 -8.7534375 0.89742187 -8.046875 0.68359375 C-5.352146 0.16327006 -2.74342137 0.06280121 0 0 Z " fill="#CC5C5C" transform="translate(237.125,23.6875)"/>
<path d="M0 0 C0.32320225 5.12227763 0.55796968 10.23855848 0.71411133 15.36865234 C0.77920754 17.10961262 0.86773109 18.8498694 0.98071289 20.58837891 C1.70167263 31.97367078 1.70167263 31.97367078 0 37 C-3.25906746 40.54899728 -6.7558695 42.34043092 -11.17123413 44.19665527 C-14.10411506 45.48501835 -16.80050733 47.15335039 -19.55078125 48.7890625 C-21.80362654 50.06957672 -24.05756679 51.34816611 -26.3125 52.625 C-28.78609637 54.0309032 -31.25845319 55.43897565 -33.73046875 56.84765625 C-34.34607666 57.19833664 -34.96168457 57.54901703 -35.59594727 57.9103241 C-41.46164301 61.25562191 -47.29699476 64.65199438 -53.125 68.0625 C-66.81116916 76.06911927 -80.55100655 83.98175185 -94.29101562 91.89550781 C-106.31337435 98.82104363 -118.32769444 105.759625 -130.3125 112.75 C-131.81611084 113.62700562 -131.81611084 113.62700562 -133.35009766 114.52172852 C-138.56342779 117.548691 -138.56342779 117.548691 -143.67651367 120.73925781 C-144.8266394 121.3633252 -144.8266394 121.3633252 -146 122 C-146.66 121.67 -147.32 121.34 -148 121 C-151.1775222 89.71567371 -151.1775222 89.71567371 -144.81982422 81.01708984 C-138.85668514 76.07891473 -131.8173848 73.32098723 -124.66162109 70.52490234 C-118.7366966 68.05743479 -113.36509455 64.73830326 -107.875 61.4375 C-105.7080323 60.18221364 -103.53876696 58.93088501 -101.3671875 57.68359375 C-95.23451982 54.13992244 -89.11547747 50.57323503 -83 47 C-69.23206784 38.95548383 -55.41484404 30.99701391 -41.59619141 23.04003906 C-38.20961328 21.0897955 -34.82350416 19.13873988 -31.4375 17.1875 C-30.35936035 16.56681641 -29.2812207 15.94613281 -28.17041016 15.30664062 C-23.31788853 12.5090324 -18.47446329 9.69889147 -13.66015625 6.8359375 C-12.86359619 6.36260986 -12.06703613 5.88928223 -11.24633789 5.40161133 C-9.7938606 4.5357448 -8.34365882 3.66604464 -6.89624023 2.79174805 C-2.21802943 0 -2.21802943 0 0 0 Z " fill="#EEC349" transform="translate(483,335)"/>
<path d="M0 0 C4.05992912 1.57690094 7.72583683 3.45491652 11.5078125 5.625 C12.115112 5.97256348 12.7224115 6.32012695 13.34811401 6.67822266 C14.62470957 7.40961771 15.90042241 8.14255541 17.17529297 8.87695312 C19.12406435 9.99946106 21.07544247 11.1173201 23.02734375 12.234375 C32.50651627 17.67101085 32.50651627 17.67101085 36 20 C36 20.66 36 21.32 36 22 C35.01 22 34.02 22 33 22 C33.65484569 25.11090383 33.65484569 25.11090383 36.00390625 26.0703125 C36.84824219 26.41835938 37.69257813 26.76640625 38.5625 27.125 C45.64494505 30.49372745 50.84941785 35.83814186 54 43.0625 C54.495 44.5165625 54.495 44.5165625 55 46 C55.99 45.67 56.98 45.34 58 45 C66.41425599 59.93517849 74.1691252 75.15902976 81.76708984 90.52050781 C82.50986558 92.02029402 83.2528608 93.51997156 83.99609375 95.01953125 C84.34877319 95.73201019 84.70145264 96.44448914 85.06481934 97.17855835 C87.30692175 101.68278907 89.65369337 106.10265975 92.20727539 110.44018555 C93 112 93 112 93 114 C89.02999326 112.53396822 85.51505193 110.65463629 81.87109375 108.5078125 C81.2888504 108.16593903 80.70660706 107.82406555 80.10671997 107.47183228 C78.21491188 106.35969211 76.32615794 105.24248002 74.4375 104.125 C73.12048604 103.34907213 71.80334631 102.57335772 70.48608398 101.79785156 C62.36532041 97.01191647 54.26831796 92.18689962 46.19384766 87.32324219 C38.41227836 82.63663347 30.59325892 78.01423279 22.76953125 73.3984375 C21.90142822 72.84816895 21.0333252 72.29790039 20.13891602 71.73095703 C17.5585981 70.30803924 15.33642006 69.39280822 12.57788086 68.45263672 C7.53272021 66.50915406 3.1833572 64.52085007 0 60 C-2.68929251 50.88954897 -1.67961167 40.89070535 -1.16729736 31.49963379 C-0.99211753 27.94808455 -0.91549373 24.39448382 -0.83007812 20.83984375 C-0.64873283 13.88817254 -0.35938638 6.94468518 0 0 Z " fill="#444340" transform="translate(166,254)"/>
<path d="M0 0 C2.80225577 1.94529794 3.97786627 4.45942563 5.61572266 7.42016602 C6.22931641 8.51586914 6.84291016 9.61157227 7.47509766 10.74047852 C7.93400391 11.58352539 8.39291016 12.42657227 8.86572266 13.29516602 C6.47447392 15.94100199 3.92927193 17.55347857 0.83447266 19.30688477 C-0.19057373 19.89195801 -1.21562012 20.47703125 -2.27172852 21.07983398 C-3.38136963 21.70776855 -4.49101074 22.33570313 -5.63427734 22.98266602 C-7.99660396 24.33004887 -10.35655813 25.6815588 -12.71630859 27.03344727 C-13.3246907 27.38153442 -13.93307281 27.72962158 -14.55989075 28.08825684 C-23.45734457 33.18717133 -32.26315265 38.44061307 -41.06787109 43.69750977 C-44.66090807 45.84065653 -48.26572791 47.94867078 -51.91943359 49.98657227 C-52.60561768 50.37603027 -53.29180176 50.76548828 -53.9987793 51.16674805 C-55.69815161 52.12744461 -57.40781776 53.06987724 -59.11865234 54.01000977 C-66.54721518 59.63916684 -71.41275853 68.4619642 -76.57177734 76.10766602 C-77.22412354 77.06946777 -77.87646973 78.03126953 -78.54858398 79.0222168 C-83.11142006 85.75710147 -87.64538982 92.5107532 -92.13427734 99.29516602 C-103.427691 96.7625167 -114.37364411 93.1393965 -125.38427734 89.60766602 C-127.30474102 88.99469344 -129.22531313 88.38206049 -131.14599609 87.76977539 C-135.81001578 86.28215115 -140.47254442 84.78994004 -145.13427734 83.29516602 C-142.2942876 80.22573663 -139.5356515 78.19597859 -135.87255859 76.19360352 C-134.33160522 75.34294312 -134.33160522 75.34294312 -132.75952148 74.47509766 C-131.11971313 73.58165649 -131.11971313 73.58165649 -129.44677734 72.67016602 C-127.1595517 71.40723172 -124.87309381 70.14290603 -122.58740234 68.87719727 C-121.47429687 68.26183105 -120.36119141 67.64646484 -119.21435547 67.01245117 C-115.33965779 64.85212908 -111.50944854 62.62520712 -107.69677734 60.35766602 C-100.68752132 56.1965165 -93.6362504 52.11187042 -86.57177734 48.04516602 C-78.07771405 43.1537126 -69.5966455 38.24125253 -61.13427734 33.29516602 C-51.66842145 27.76467671 -42.1917482 22.25320053 -32.68261719 16.79736328 C-27.41795558 13.77674076 -22.17299568 10.73124352 -16.96630859 7.61157227 C-16.00168701 7.04067871 -15.03706543 6.46978516 -14.04321289 5.8815918 C-12.23099404 4.80821408 -10.42599064 3.72252838 -8.62963867 2.62280273 C-7.4292395 1.91728271 -7.4292395 1.91728271 -6.20458984 1.19750977 C-5.51123535 0.77977295 -4.81788086 0.36203613 -4.10351562 -0.06835938 C-2.13427734 -0.70483398 -2.13427734 -0.70483398 0 0 Z " fill="#EFC348" transform="translate(169.13427734375,154.704833984375)"/>
<path d="M0 0 C4.31351657 0.5969421 7.39962948 2.14827192 11.15625 4.31640625 C11.73983276 4.65115463 12.32341553 4.98590302 12.92468262 5.33079529 C14.7869604 6.40152441 16.64335618 7.48203779 18.5 8.5625 C20.32133015 9.60988626 22.14365292 10.65546744 23.96757507 11.69833374 C25.18272998 12.40556308 26.38858044 13.12901168 27.58479309 13.86782837 C30.66840678 15.76011176 33.30204069 17.10056957 36.77612305 18.25732422 C40.83248819 19.83825802 43.8532194 21.15374014 46 25 C48.07619228 34.07599643 47.2824275 43.65665627 46.89263916 52.8994751 C46.75891054 56.40463165 46.70012765 59.91098916 46.63476562 63.41796875 C46.49592206 70.28162801 46.27449836 77.14046163 46 84 C42.11712251 82.49034633 38.64109119 80.72959399 35.046875 78.61328125 C34.47798553 78.27942917 33.90909607 77.94557709 33.32296753 77.60160828 C31.46320321 76.50877702 29.60654071 75.41079728 27.75 74.3125 C26.45111481 73.54734659 25.15212256 72.7823749 23.85302734 72.01757812 C12.4291397 65.28418134 1.05419453 58.46935759 -10.30322266 51.62451172 C-14.21980267 49.26520306 -18.14102699 46.91366344 -22.0625 44.5625 C-23.24091244 43.8555138 -24.41930148 43.14848857 -25.59765625 42.44140625 C-26.78681641 41.72791016 -26.78681641 41.72791016 -28 41 C-23.3280718 33.28707126 -18.16929684 26.00878692 -12.85986328 18.72753906 C-8.39773233 12.59389204 -4.12999955 6.36344342 0 0 Z " fill="#44433F" transform="translate(107,221)"/>
<path d="M0 0 C11.30714697 5.77071075 19.15560747 15.1342938 25.1875 26.1875 C25.65929687 27.04859375 26.13109375 27.9096875 26.6171875 28.796875 C29.33559254 34.23368508 30.42430519 38.83225589 31.125 44.875 C31.90364568 49.52788273 32.65526237 52.18797985 36.484375 54.921875 C39.91853898 57.00256145 43.480212 58.65463191 47.1875 60.1875 C43.69292257 63.95327371 39.40781417 66.19138323 35 68.75 C34.17435547 69.24435547 33.34871094 69.73871094 32.49804688 70.24804688 C25.88793429 74.09743474 19.32428044 77.22431065 11.44140625 75.8359375 C-3.05514195 71.66535344 -12.69036585 61.27163433 -20.08984375 48.5390625 C-26.34759843 36.36411121 -30.76888078 22.81251601 -26.5625 9.1875 C-24.67288923 4.38876754 -22.41388268 1.24295677 -18.0625 -1.625 C-10.94240857 -4.22657187 -6.75942205 -3.08052349 0 0 Z " fill="#464441" transform="translate(76.8125,299.8125)"/>
<path d="M0 0 C16.52942408 7.62733065 26.24989365 21.58357221 32.9453125 37.96875 C34.44799198 42.08501844 35.16604956 45.32972359 35.1015625 49.71484375 C35.09253906 50.5140625 35.08351563 51.31328125 35.07421875 52.13671875 C35.06261719 52.74 35.05101562 53.34328125 35.0390625 53.96484375 C35.6784375 54.19171875 36.3178125 54.41859375 36.9765625 54.65234375 C41.17226511 56.45050201 45.07806806 58.70388396 49.0390625 60.96484375 C46.03385447 64.14552595 42.53819237 66.20495746 38.7890625 68.40234375 C38.14582031 68.78455078 37.50257813 69.16675781 36.83984375 69.56054688 C35.5477551 70.32618089 34.25257828 71.08662756 32.9543457 71.84179688 C31.68593201 72.58554487 30.42634376 73.34457034 29.17651367 74.11914062 C23.58619935 77.51448025 19.42756453 78.05905358 13.0390625 76.96484375 C-2.64710835 71.47568562 -12.8026646 58.97427443 -19.8359375 44.40234375 C-24.80902453 32.59771502 -26.63096117 21.39287845 -22.9609375 8.96484375 C-17.9572603 -0.68510513 -10.05396059 -3.51490707 0 0 Z " fill="#454441" transform="translate(235.9609375,392.03515625)"/>
<path d="M0 0 C0.66 0 1.32 0 2 0 C9.13635199 13.68284504 16.23341535 27.37741601 23.09057617 41.20288086 C26.01426577 47.07992302 29.03765168 52.89498382 32.125 58.6875 C37.07215352 67.9754899 41.57458877 77.45436659 46 87 C39.50783939 91.51001303 32.78606903 95.49701218 25.90063477 99.37451172 C22.7960183 101.12381988 19.69840135 102.88540573 16.6015625 104.6484375 C15.64887482 105.19078033 15.64887482 105.19078033 14.67694092 105.74407959 C8.23840907 109.41887978 1.86669837 113.20210645 -4.5 117 C-13.61281505 122.43210351 -22.77622276 127.75977735 -32 133 C-41.26375564 138.26346098 -50.46928024 143.61214609 -59.625 149.0625 C-68.33286017 154.24246835 -77.05161348 159.40180169 -85.81585693 164.48580933 C-87.53013237 165.48120569 -89.2418989 166.48091888 -90.95361328 167.48071289 C-91.98083496 168.07489014 -93.00805664 168.66906738 -94.06640625 169.28125 C-94.97334229 169.80783203 -95.88027832 170.33441406 -96.81469727 170.87695312 C-99 172 -99 172 -101 172 C-114.88111045 145.52816057 -114.88111045 145.52816057 -120.15551758 134.02514648 C-123.03524312 127.79564638 -126.24970295 121.75772842 -129.47900391 115.70385742 C-132.56365489 109.89848856 -135.41735366 104.04882959 -138 98 C-136.35 96.35 -134.7 94.7 -133 93 C-132.44650879 94.08192627 -131.89301758 95.16385254 -131.32275391 96.27856445 C-129.21773774 100.39257396 -127.1112589 104.50583321 -125.00439453 108.61889648 C-124.10231869 110.38041909 -123.20061076 112.14213016 -122.29931641 113.90405273 C-117.45766253 123.36826888 -112.59335612 132.81971246 -107.6484375 142.23046875 C-107.25451813 142.9812117 -106.86059875 143.73195465 -106.45474243 144.50544739 C-104.03158735 149.10302564 -101.52406915 153.64038976 -98.93032837 158.14424133 C-98 160 -98 160 -98 162 C-83.92440377 154.22297993 -69.98254857 146.27494226 -56.16943359 138.03955078 C-48.41897234 133.42218375 -40.63310246 128.87250471 -32.8125 124.375 C-21.52996974 117.88642185 -10.2795802 111.34472698 0.95751953 104.77783203 C6.32470128 101.64159246 11.69354022 98.50819442 17.0625 95.375 C18.05588379 94.79484131 19.04926758 94.21468262 20.07275391 93.61694336 C25.03518044 90.7207001 30.00530507 87.84025648 35 85 C34.42130608 81.5278365 33.54263259 78.72905845 31.93383789 75.60302734 C31.50571304 74.7637973 31.0775882 73.92456726 30.63648987 73.05990601 C30.16992477 72.1609964 29.70335968 71.26208679 29.22265625 70.3359375 C28.7372789 69.38925201 28.25190155 68.44256653 27.7518158 67.4671936 C26.19446416 64.43346447 24.6285195 61.40426219 23.0625 58.375 C22.04307541 56.39090461 21.02418995 54.40653211 20.00585938 52.421875 C16.07101988 44.76497976 12.13290878 37.11082548 8.08544922 29.51269531 C7.39810951 28.22004257 7.39810951 28.22004257 6.69688416 26.90127563 C5.8414321 25.29642801 4.98198822 23.69369881 4.11769104 22.09359741 C2.00679439 18.1353848 0.27113194 14.32705781 -1 10 C-16.70516554 19.04155709 -32.38619096 28.12249373 -48.03222656 37.26611328 C-54.02108311 40.76503227 -60.01331349 44.25817064 -66.00488281 47.75244141 C-70.980906 50.65471704 -75.95616135 53.5582908 -80.9296875 56.46484375 C-91.72935194 62.77425204 -102.54258161 69.0595259 -113.375 75.3125 C-115.07052002 76.29174438 -115.07052002 76.29174438 -116.80029297 77.29077148 C-117.84330566 77.89219971 -118.88631836 78.49362793 -119.9609375 79.11328125 C-121.34998291 79.91439331 -121.34998291 79.91439331 -122.76708984 80.73168945 C-124.1590113 81.5223118 -125.56820979 82.28410489 -127 83 C-128.98 81.68 -130.96 80.36 -133 79 C-130.5849251 76.32186248 -127.98947088 74.6956489 -124.86328125 72.91796875 C-123.82349121 72.32298584 -122.78370117 71.72800293 -121.71240234 71.11499023 C-120.59043457 70.47891846 -119.4684668 69.84284668 -118.3125 69.1875 C-116.53876625 68.1745345 -114.76605798 67.15978917 -112.99334717 66.14503479 C-111.78081764 65.45114574 -110.56796428 64.75782228 -109.35479736 64.06504822 C-103.50728225 60.7249486 -97.68835798 57.33667277 -91.875 53.9375 C-89.88671875 52.77604167 -87.8984375 51.61458333 -85.91015625 50.453125 C-84.93191895 49.88142578 -83.95368164 49.30972656 -82.94580078 48.72070312 C-80.02605681 47.01522032 -77.1050684 45.31189123 -74.18359375 43.609375 C-65.76889575 38.70524967 -57.35566923 33.79877612 -48.95703125 28.8671875 C-47.12645759 27.79244498 -45.29588279 26.71770439 -43.46530151 25.64297485 C-42.24368224 24.92573972 -41.02210391 24.20843482 -39.80056763 23.49105835 C-33.01922056 19.50967653 -26.22871199 15.54525088 -19.4140625 11.62109375 C-18.80611847 11.27099747 -18.19817444 10.92090118 -17.57180786 10.56019592 C-14.66885308 8.88947234 -11.76423895 7.221738 -8.85791016 5.55688477 C-7.327229 4.67794556 -7.327229 4.67794556 -5.765625 3.78125 C-4.86618164 3.26626953 -3.96673828 2.75128906 -3.04003906 2.22070312 C-1.07791732 1.15914975 -1.07791732 1.15914975 0 0 Z " fill="#ECC148" transform="translate(366,192)"/>
<path d="M0 0 C1.94968891 1.16457928 3.89498543 2.33654197 5.8359375 3.515625 C7.34220703 4.41861328 7.34220703 4.41861328 8.87890625 5.33984375 C11.32690799 6.8086448 13.7707158 8.28394748 16.2109375 9.765625 C12.77205414 10.91191945 10.32619639 10.72609467 6.7109375 10.578125 C-10.70551275 10.50659954 -23.89320629 21.14641661 -35.7890625 32.765625 C-36.81 33.69375 -36.81 33.69375 -37.8515625 34.640625 C-42.8874497 39.31680597 -46.29128725 44.88638575 -49.7890625 50.765625 C-47.4790625 52.085625 -45.1690625 53.405625 -42.7890625 54.765625 C-42.7890625 55.425625 -42.7890625 56.085625 -42.7890625 56.765625 C-44.36328125 57.7734375 -44.36328125 57.7734375 -46.4765625 58.890625 C-50.62484962 61.33554467 -52.55456574 63.97939162 -54.78125 68.19140625 C-55.11382812 68.71089844 -55.44640625 69.23039062 -55.7890625 69.765625 C-56.4490625 69.765625 -57.1090625 69.765625 -57.7890625 69.765625 C-58.74114732 68.38613368 -59.62621428 66.96005212 -60.4765625 65.515625 C-63.38470316 60.95594767 -65.91491289 59.00773382 -70.7890625 56.765625 C-69.7890625 53.765625 -69.7890625 53.765625 -65.7890625 50.765625 C-71.7290625 47.135625 -77.6690625 43.505625 -83.7890625 39.765625 C-79.83871074 23.96421794 -61.88535101 8.59348238 -48.9921875 -0.04296875 C-46.33789924 -1.47835513 -43.66478913 -2.32682629 -40.7890625 -3.234375 C-39.42587891 -3.76417969 -39.42587891 -3.76417969 -38.03515625 -4.3046875 C-23.64641492 -9.70797006 -12.98243032 -7.48661425 0 0 Z " fill="#E86C6C" transform="translate(259.7890625,31.234375)"/>
<path d="M0 0 C5.11811874 0.06629687 7.98939081 0.67588394 11.8125 4.3125 C16.60622813 10.83815572 17.45272202 17.44515639 16.8125 25.3125 C14.58343805 39.37788093 6.98895708 52.57690026 -3.1875 62.3125 C-3.81914062 62.97507813 -4.45078125 63.63765625 -5.1015625 64.3203125 C-8.38545257 67.54633667 -8.38545257 67.54633667 -10.1875 68.3125 C-15.83395266 67.23144132 -20.36114433 63.82704938 -25.0625 60.6875 C-25.84625 60.171875 -26.63 59.65625 -27.4375 59.125 C-29.35822607 57.86013162 -31.27464347 56.58922497 -33.1875 55.3125 C-32.04707378 51.89122135 -31.52249161 51.67233806 -28.625 49.8125 C-14.80770022 39.77703719 -9.01731368 22.442438 -6.1875 6.3125 C-6.16536826 4.64598028 -6.15588014 2.97886669 -6.1875 1.3125 C-4.47957001 -0.39542999 -2.33206519 0.05979654 0 0 Z " fill="#E76C6C" transform="translate(252.1875,72.6875)"/>
<path d="M0 0 C10.45299023 3.46819892 17.46207212 11.01347458 22.74609375 20.4296875 C26.2729933 27.65928222 28.04341948 34.94480161 27 43 C25.60292701 46.65900069 24.09592259 49.54906128 21 52 C15.93910779 53.68696407 11.75041441 53.59909535 6.9375 51.3125 C-5.76024244 44.25548545 -11.53672263 32.3898321 -16 19 C-16.7334423 12.12247551 -16.09510366 7.61614216 -12 2 C-7.88879431 -0.7408038 -4.82674466 -0.7076246 0 0 Z " fill="#FAFAFA" transform="translate(236,404)"/>
<path d="M0 0 C12.75601438 4.63217028 19.18243364 12.40109983 24.87109375 24.3984375 C26.8343487 28.92275515 27.19192262 32.448102 27.25 37.375 C27.27578125 38.68210937 27.3015625 39.98921875 27.328125 41.3359375 C26.91198096 45.98287926 25.43796442 48.4555197 22.3125 51.8125 C17.66127084 54.20096903 13.28699297 53.39069429 8.5 51.9375 C-2.31142642 46.66723746 -9.56686504 35.82673997 -14 25 C-15.63677455 18.47362045 -16.30168037 11.60336074 -13.25 5.5 C-9.19761007 0.99734452 -6.25520447 -1.34279881 0 0 Z " fill="#FAFAFA" transform="translate(73,310)"/>
<path d="M0 0 C6.13741321 3.421371 11.52571319 7.04273763 16.27734375 12.26953125 C16.9321875 12.90890625 17.58703125 13.54828125 18.26171875 14.20703125 C30.12330873 26.31403344 38.85466091 44.37171931 39.375 61.48046875 C39.36339844 62.52460938 39.35179687 63.56875 39.33984375 64.64453125 C39.33082031 65.70414062 39.32179688 66.76375 39.3125 67.85546875 C39.30089844 68.65210938 39.28929687 69.44875 39.27734375 70.26953125 C34.84836571 68.7864331 30.99436152 67.12917783 27.27734375 64.26953125 C26.122084 61.1027604 25.9602326 58.32713163 25.73046875 54.96875 C23.94298428 40.37609663 13.65771169 26.12563341 2.65625 16.9609375 C-3.76372096 12.39632761 -10.43180775 9.31859899 -18.4296875 9.7890625 C-22.35997005 10.61261404 -25.04041406 12.30337484 -27.72265625 15.26953125 C-30.26832294 19.85173129 -31.19299419 24.07884303 -31.72265625 29.26953125 C-36.66034652 28.00640118 -39.80989044 26.54765604 -42.72265625 22.26953125 C-42.97554859 15.41481777 -39.00790023 9.30811721 -34.72265625 4.26953125 C-25.18554265 -4.36428745 -11.52768009 -5.42817548 0 0 Z " fill="#CD9F3A" transform="translate(243.72265625,381.73046875)"/>
<path d="M0 0 C1.36339697 1.15586641 2.71748757 2.32279142 4.0625 3.5 C5.27679688 4.42039062 5.27679688 4.42039062 6.515625 5.359375 C19.48984174 16.26408477 29.3633663 36.06604594 31.8125 52.6875 C32.09332662 56.97010592 32.15186243 61.21060353 32.0625 65.5 C23.33601102 62.32673128 23.33601102 62.32673128 20.0625 59.5 C18.83088206 56.81465088 18.51165015 54.10008076 18.125 51.1875 C15.14904517 34.6670284 6.20348285 20.59256134 -7.6875 10.9375 C-9.08657671 10.09507193 -10.50222157 9.27915115 -11.9375 8.5 C-12.54207031 8.16355469 -13.14664063 7.82710938 -13.76953125 7.48046875 C-18.11963961 5.32996371 -22.19563507 4.67857458 -26.9375 5.5 C-31.88008562 7.18771216 -34.76718448 9.81618903 -37.16015625 14.55078125 C-38.45875604 17.80706916 -39.21562689 21.0711027 -39.9375 24.5 C-43.53141114 23.16511872 -46.69240696 21.53977277 -49.9375 19.5 C-49.28849321 10.41390487 -46.41689572 4.24108915 -39.734375 -2.02734375 C-28.21438301 -11.46872849 -11.1140262 -8.58475446 0 0 Z " fill="#CC9F3A" transform="translate(88.9375,292.5)"/>
<path d="M0 0 C6.52938721 2.35057939 12.28687419 6.22021089 18.15234375 9.86572266 C19.77172631 10.85986264 21.4153967 11.81421417 23.0625 12.76171875 C28.93356101 16.369975 31.0293341 19.29897187 32.97265625 25.86328125 C41.14757629 50.82320822 62.29669627 72.44387931 80 91 C69.59658345 91 53.34863661 77.82493211 46.05517578 70.85375977 C43.59299333 68.31465827 41.28247198 65.70438347 39 63 C38.19046875 62.05382812 37.3809375 61.10765625 36.546875 60.1328125 C34.31770599 57.45629325 32.15968231 54.73265925 30 52 C29.27425781 51.14148438 28.54851562 50.28296875 27.80078125 49.3984375 C0 16.50327225 0 16.50327225 0 0 Z " fill="#E76E6B" transform="translate(161,134)"/>
<path d="M0 0 C0.72058594 0.41507812 1.44117188 0.83015625 2.18359375 1.2578125 C11.39534995 6.54379025 20.65773566 11.73631496 29.93920898 16.89892578 C31.987747 18.04188414 34.02801846 19.19980495 36.05908203 20.37353516 C38.95886722 22.03729903 38.95886722 22.03729903 41.96826172 23.29443359 C44.81037118 24.63322865 46.83086456 25.72091104 49 28 C50.20832674 32.51680427 49.95129461 36.74161653 49.625 41.375 C49.57988281 42.58800781 49.53476562 43.80101562 49.48828125 45.05078125 C49.3706381 48.03891724 49.20658508 51.01691145 49 54 C45.4467864 52.66223552 42.23829775 51.08386975 38.96484375 49.1640625 C37.9994165 48.60001709 37.03398926 48.03597168 36.03930664 47.45483398 C34.50391235 46.54906616 34.50391235 46.54906616 32.9375 45.625 C31.88361084 45.00375244 30.82972168 44.38250488 29.74389648 43.74243164 C27.56787588 42.45877717 25.39250585 41.17401927 23.21777344 39.88818359 C20.16128043 38.09463906 17.08839652 36.33378621 14.0078125 34.58203125 C12.19253661 33.5341516 10.37742387 32.48598924 8.5625 31.4375 C7.71099365 30.96199707 6.8594873 30.48649414 5.98217773 29.99658203 C4.81730835 29.31571533 4.81730835 29.31571533 3.62890625 28.62109375 C2.94900635 28.2336499 2.26910645 27.84620605 1.56860352 27.44702148 C-0.61152233 25.4358766 -0.70815045 23.9158131 -1 21 C-1.01475433 19.30557299 -0.97232482 17.60988292 -0.87890625 15.91796875 C-0.83056641 14.98662109 -0.78222656 14.05527344 -0.73242188 13.09570312 C-0.67634766 12.13599609 -0.62027344 11.17628906 -0.5625 10.1875 C-0.51029297 9.20845703 -0.45808594 8.22941406 -0.40429688 7.22070312 C-0.27512661 4.8134391 -0.14018357 2.40664362 0 0 Z " fill="#C4C2BF" transform="translate(287,434)"/>
<path d="M0 0 C0 0.99 0 1.98 0 3 C-0.48017578 3.25990723 -0.96035156 3.51981445 -1.45507812 3.78759766 C-13.67607263 10.41832069 -25.73368869 17.29420933 -37.7265625 24.328125 C-44.13246888 28.08448904 -50.56415067 31.79523773 -57 35.5 C-65.34812962 40.30826477 -73.68243353 45.13905782 -82 50 C-96.45512109 58.44623698 -110.9635679 66.79968857 -125.47399902 75.1504364 C-127.88217475 76.53659738 -130.28990699 77.92352749 -132.6975708 79.31057739 C-134.40258234 80.29239298 -136.1082667 81.27303984 -137.81396484 82.25366211 C-138.84344238 82.84671143 -139.87291992 83.43976074 -140.93359375 84.05078125 C-142.2956897 84.83449097 -142.2956897 84.83449097 -143.68530273 85.6340332 C-145.49126201 86.69977966 -147.25521129 87.83680752 -149 89 C-153.13461381 88.66963029 -156.21848391 86.98137967 -159.796875 84.97265625 C-160.91344482 84.3497168 -162.03001465 83.72677734 -163.18041992 83.08496094 C-164.37056414 82.41130912 -165.56041914 81.73714613 -166.75 81.0625 C-167.96380043 80.37896865 -169.17774977 79.69570165 -170.3918457 79.01269531 C-172.80590016 77.65225012 -175.21687835 76.28656394 -177.62548828 74.91650391 C-180.59714031 73.22879819 -183.57659799 71.5560392 -186.55859375 69.88671875 C-188.10237008 69.00923178 -189.64540828 68.13044414 -191.1875 67.25 C-192.24565918 66.66037476 -192.24565918 66.66037476 -193.32519531 66.05883789 C-195.23046875 64.953125 -195.23046875 64.953125 -198 63 C-198 62.01 -198 61.02 -198 60 C-195.30586886 58.93061296 -194.2492313 58.89817226 -191.52075195 60.01293945 C-190.60253662 60.54105225 -189.68432129 61.06916504 -188.73828125 61.61328125 C-187.70928711 62.19787109 -186.68029297 62.78246094 -185.62011719 63.38476562 C-184.52860352 64.02091797 -183.43708984 64.65707031 -182.3125 65.3125 C-181.19649414 65.94736328 -180.08048828 66.58222656 -178.93066406 67.23632812 C-173.81919464 70.15590772 -168.74946515 73.12914086 -163.74609375 76.23046875 C-162.97676514 76.70250732 -162.20743652 77.1745459 -161.41479492 77.66088867 C-160.00449825 78.53327812 -158.60418884 79.4220912 -157.21606445 80.3293457 C-155.14858019 81.66849784 -155.14858019 81.66849784 -152 83 C-148.29230889 81.86785728 -145.01194623 79.98587875 -141.640625 78.09375 C-140.61654541 77.52019775 -139.59246582 76.94664551 -138.53735352 76.35571289 C-137.45252686 75.74332764 -136.3677002 75.13094238 -135.25 74.5 C-134.12327881 73.86634521 -132.99655762 73.23269043 -131.83569336 72.57983398 C-125.04626123 68.75080572 -118.29252686 64.86903332 -111.58911133 60.89160156 C-105.23613353 57.12384767 -98.83880115 53.4349457 -92.4375 49.75 C-83.94343765 44.85854713 -75.46229238 39.94621516 -67 35 C-57.60674617 29.51020459 -48.19558113 24.05232597 -38.75708008 18.640625 C-33.20301976 15.45084117 -27.68093287 12.21905382 -22.19921875 8.90625 C-21.10544922 8.25076172 -20.01167969 7.59527344 -18.88476562 6.91992188 C-16.79935331 5.66765535 -14.72082464 4.40383172 -12.65039062 3.12695312 C-11.71775391 2.56943359 -10.78511719 2.01191406 -9.82421875 1.4375 C-9.01041748 0.94121094 -8.19661621 0.44492187 -7.3581543 -0.06640625 C-4.48743492 -1.20292462 -2.91665342 -0.86544119 0 0 Z " fill="#E8E6E0" transform="translate(487,373)"/>
<path d="M0 0 C0.66 0 1.32 0 2 0 C2.51046875 1.06927734 2.51046875 1.06927734 3.03125 2.16015625 C8.06755429 12.11221499 13.87543458 17.48010472 24 22 C24 22.66 24 23.32 24 24 C23.33613281 24.31453125 22.67226562 24.6290625 21.98828125 24.953125 C13.57081122 29.0328331 9.01805432 32.41349697 4.4296875 40.66015625 C3.12496309 42.79548391 1.84759544 44.3327911 0 46 C-0.3403125 45.28714844 -0.680625 44.57429688 -1.03125 43.83984375 C-6.06755429 33.88778501 -11.87543458 28.51989528 -22 24 C-22 23.01 -22 22.02 -22 21 C-12 16 -12 16 -9.796875 15.0859375 C-7.48728791 13.69014356 -7.04924114 12.46571668 -6 10 C-5.01843893 8.23959156 -4.01748181 6.4898939 -3 4.75 C-2.484375 3.85796875 -1.96875 2.9659375 -1.4375 2.046875 C-0.963125 1.37140625 -0.48875 0.6959375 0 0 Z " fill="#FCFCFB" transform="translate(221,255)"/>
<path d="M0 0 C1.58167969 -0.05607422 1.58167969 -0.05607422 3.1953125 -0.11328125 C12.59155932 0.97397024 20.56179348 6.24022501 28.5 11.0625 C30.00626953 11.96548828 30.00626953 11.96548828 31.54296875 12.88671875 C33.99097049 14.3555198 36.4347783 15.83082248 38.875 17.3125 C35.43611664 18.45879445 32.99025889 18.27296967 29.375 18.125 C21.7481261 18.05394217 15.42122085 19.66774034 8.8203125 23.5078125 C6.31580879 24.54381202 5.4316887 24.15100698 2.875 23.3125 C1.22395782 22.47549535 -0.40077122 21.58561567 -2.00390625 20.66015625 C-3.38545898 19.86641602 -3.38545898 19.86641602 -4.79492188 19.05664062 C-5.74947266 18.50169922 -6.70402344 17.94675781 -7.6875 17.375 C-8.64591797 16.82392578 -9.60433594 16.27285156 -10.59179688 15.70507812 C-14.16243107 13.64577052 -17.69446094 11.59952604 -21.125 9.3125 C-20.12725828 6.75377528 -19.48161889 5.52936284 -17.1015625 4.08203125 C-16.32554687 3.76621094 -15.54953125 3.45039063 -14.75 3.125 C-13.97914063 2.80144531 -13.20828125 2.47789063 -12.4140625 2.14453125 C-8.1999445 0.61277846 -4.50066713 0.10302732 0 0 Z " fill="#FB7D7D" transform="translate(237.125,23.6875)"/>
<path d="M0 0 C3.3125 1.5625 3.3125 1.5625 6 4 C7.24361387 9.65279033 4.97594283 13.81324943 2.484375 18.765625 C0.88736586 21.16954402 -0.53627625 22.5130188 -3 24 C-7.19079882 23.78508724 -11.01176563 21.98823437 -14 19 C-14.30503219 12.19645593 -12.7552081 7.72564724 -8.47265625 2.49609375 C-5.80840628 -0.21055808 -3.69591035 -0.41998981 0 0 Z " fill="#E9E7E3" transform="translate(359,418)"/>
<path d="M0 0 C4.41712321 3.74071919 8.54404642 9.20762419 9.24609375 15.046875 C9.36515699 18.88491367 9.16140939 20.75788592 7 24 C3.85780604 24.6576685 1.90072053 24.57249186 -0.84375 22.828125 C-5.39316764 19.08834949 -9.1153596 15.01555471 -10 9 C-10.43391067 2.81677302 -10.43391067 2.81677302 -8.9375 0 C-5.59445857 -1.72544074 -3.53347217 -1.07800846 0 0 Z " fill="#484745" transform="translate(242,418)"/>
<path d="M0 0 C5.18436613 0.91980689 6.8683022 3.31217825 10.17578125 7.23046875 C13.49204839 12.0257148 14.30632316 15.86463728 13.875 21.6875 C13.215 22.6775 12.555 23.6675 11.875 24.6875 C7.88728342 25.21417955 5.65923976 25.16169148 2.1875 23.0625 C-2.46718928 18.28200831 -5.2571428 13.84536396 -5.3125 7.125 C-5.32667969 6.33996094 -5.34085937 5.55492187 -5.35546875 4.74609375 C-4.95257787 1.14739047 -3.35604372 0.73832962 0 0 Z " fill="#474645" transform="translate(75.125,323.3125)"/>
<path d="M0 0 C3.5625 0.375 3.5625 0.375 6 1.375 C7.99038116 3.92268789 8.11933504 5.99831294 7.94921875 9.18359375 C7.04378735 14.31437168 4.69243903 18.15585525 1.1875 21.9375 C-1.4375 23.375 -1.4375 23.375 -4.5 23.375 C-7.92798445 22.20802657 -9.38859294 21.36955648 -11.4375 18.375 C-12.39912325 12.81895456 -10.8117116 9.6576 -7.82421875 5.171875 C-4.18523414 0.456571 -4.18523414 0.456571 0 0 Z " fill="#E8E7E3" transform="translate(467.4375,354.625)"/>
<path d="M0 0 C0.66 0 1.32 0 2 0 C2.95208482 1.37949132 3.83715178 2.80557288 4.6875 4.25 C7.59564066 8.80967733 10.12585039 10.75789118 15 13 C15 13.66 15 14.32 15 15 C13.42578125 16.0078125 13.42578125 16.0078125 11.3125 17.125 C7.16421288 19.56991967 5.23449676 22.21376662 3.0078125 26.42578125 C2.67523438 26.94527344 2.34265625 27.46476562 2 28 C1.34 28 0.68 28 0 28 C-0.95208482 26.62050868 -1.83715178 25.19442712 -2.6875 23.75 C-5.59564066 19.19032267 -8.12585039 17.24210882 -13 15 C-12 12 -12 12 -8.75 10.3125 C-4.76395187 8.22534954 -3.12897774 5.51085256 -1.04296875 1.609375 C-0.69878906 1.07828125 -0.35460937 0.5471875 0 0 Z " fill="#FDFAFA" transform="translate(202,73)"/>
<path d="M0 0 C10 6 10 6 13 11 C13.37231445 13.18823242 13.37231445 13.18823242 13.36328125 15.35546875 C13.36263672 16.14244141 13.36199219 16.92941406 13.36132812 17.74023438 C13.34521484 18.54783203 13.32910156 19.35542969 13.3125 20.1875 C13.31572266 21.00669922 13.31894531 21.82589844 13.32226562 22.66992188 C13.26737697 28.73262303 13.26737697 28.73262303 11 31 C6.74708809 30.68496949 3.75724809 28.14699891 0 26 C0 17.42 0 8.84 0 0 Z " fill="#F15D58" transform="translate(24,252)"/>
<path d="M0 0 C2.86517613 1.34733972 5.41972354 2.90397646 8.06640625 4.640625 C12.20944081 7.326029 16.37632078 9.86835529 20.69140625 12.265625 C20.69140625 12.925625 20.69140625 13.585625 20.69140625 14.265625 C15.26526148 17.03642233 10.78967264 18.09406874 4.69140625 17.265625 C0.14363713 15.405174 -2.53514233 12.2717215 -5.30859375 8.265625 C-6.12109375 4.390625 -6.12109375 4.390625 -6.30859375 1.265625 C-3.84538917 -0.37651138 -2.8884345 -0.91882519 0 0 Z " fill="#CB5C5B" transform="translate(219.30859375,127.734375)"/>
<path d="M0 0 C5.11811874 0.06629687 7.98939081 0.67588394 11.8125 4.3125 C15.74896622 9.1868077 16.24441254 13.15774631 15.8125 19.3125 C10.32993777 16.73177114 4.97206103 13.95082129 -0.25 10.875 C-1.16910156 10.34003906 -2.08820313 9.80507812 -3.03515625 9.25390625 C-5.1875 7.3125 -5.1875 7.3125 -6.05859375 4.15234375 C-6.10113281 3.21519531 -6.14367187 2.27804688 -6.1875 1.3125 C-4.47957001 -0.39542999 -2.33206519 0.05979654 0 0 Z " fill="#FA7D7D" transform="translate(252.1875,72.6875)"/>
<path d="M0 0 C5.04736106 1.79530119 9.59390552 4.44991365 14.25 7.0625 C15.07757813 7.52205078 15.90515625 7.98160156 16.7578125 8.45507812 C22.86294063 11.86294063 22.86294063 11.86294063 24 13 C24.04092937 15.33297433 24.04241723 17.66705225 24 20 C18.39523177 18.42195846 13.64949374 15.73583615 8.625 12.875 C7.79355469 12.40707031 6.96210938 11.93914062 6.10546875 11.45703125 C4.06765046 10.30929451 2.03264431 9.15686718 0 8 C0 5.36 0 2.72 0 0 Z " fill="#49463F" transform="translate(163,320)"/>
<path d="M0 0 C5.07634826 1.7989503 9.63713611 4.49026455 14.3125 7.125 C15.14845703 7.59292969 15.98441406 8.06085938 16.84570312 8.54296875 C18.89866233 9.6926259 20.95002202 10.84503802 23 12 C23 14.64 23 17.28 23 20 C18.05560901 18.26946315 13.72834891 15.60713969 9.25 12.9375 C8.47011719 12.47794922 7.69023438 12.01839844 6.88671875 11.54492188 C1.14457289 8.14457289 1.14457289 8.14457289 0 7 C-0.04092937 4.66702567 -0.04241723 2.33294775 0 0 Z " fill="#4A4740" transform="translate(78,271)"/>
<path d="M0 0 C4.62 2.31 9.24 4.62 14 7 C14 7.99 14 8.98 14 10 C12.28759766 11.36621094 12.28759766 11.36621094 9.9140625 12.734375 C9.06585938 13.22550781 8.21765625 13.71664063 7.34375 14.22265625 C6.4465625 14.72667969 5.549375 15.23070312 4.625 15.75 C3.29082031 16.52923828 3.29082031 16.52923828 1.9296875 17.32421875 C-2.99181612 20.13544127 -2.99181612 20.13544127 -5 21 C-5.66 20.67 -6.32 20.34 -7 20 C-6.38125 19.29875 -5.7625 18.5975 -5.125 17.875 C-1.03352505 12.33947506 -0.60640148 6.67041631 0 0 Z " fill="#23211F" transform="translate(109,352)"/>
<path d="M0 0 C4.97209562 1.76429199 9.43438061 4.3939166 14 7 C11.20957375 10.28834617 7.52671824 12.12735689 3.8125 14.1875 C3.15830078 14.55552734 2.50410156 14.92355469 1.83007812 15.30273438 C0.22253039 16.2062466 -1.38840651 17.1037241 -3 18 C-3 15 -3 15 -2.0625 12.9375 C-0.53455938 8.71319359 -0.32895539 4.45821115 0 0 Z " fill="#242220" transform="translate(271,446)"/>
<path d="M0 0 C0 0.99 0 1.98 0 3 C-1.6796875 4.40234375 -1.6796875 4.40234375 -3.875 5.9375 C-8.66091354 9.86093442 -9.19872722 13.64730324 -9.84375 19.62109375 C-9.8953125 20.40613281 -9.946875 21.19117188 -10 22 C-11.9921875 20.79296875 -11.9921875 20.79296875 -14 19 C-14.76016951 14.63290372 -13.80648039 10.43530133 -11.65234375 6.6015625 C-8.04145636 1.68649711 -6.25057688 -0.16448887 0 0 Z " fill="#D8D4CC" transform="translate(359,418)"/>
<path d="M0 0 C0.66 0.66 1.32 1.32 2 2 C0.9275 2.391875 -0.145 2.78375 -1.25 3.1875 C-5.58198545 5.02903227 -7.90058741 7.80117481 -10 12 C-10.22467831 13.53668865 -10.40796805 15.07968054 -10.5625 16.625 C-10.64628906 17.44226563 -10.73007812 18.25953125 -10.81640625 19.1015625 C-10.87699219 19.72804688 -10.93757813 20.35453125 -11 21 C-11.99 20.67 -12.98 20.34 -14 20 C-15.58543507 16.82912985 -15.34065437 14.52009516 -15 11 C-11.53907803 3.70400234 -8.51110459 -0.77373678 0 0 Z " fill="#D7D3CD" transform="translate(471,355)"/>
</svg>
